<?xml version="1.0" encoding="UTF-8" standalone="no"?>
<!-- Created with Inkscape (http://www.inkscape.org/) -->

<svg
   xmlns:dc="http://purl.org/dc/elements/1.1/"
   xmlns:cc="http://creativecommons.org/ns#"
   xmlns:rdf="http://www.w3.org/1999/02/22-rdf-syntax-ns#"
   xmlns:svg="http://www.w3.org/2000/svg"
   xmlns="http://www.w3.org/2000/svg"
   xmlns:sodipodi="http://sodipodi.sourceforge.net/DTD/sodipodi-0.dtd"
   xmlns:inkscape="http://www.inkscape.org/namespaces/inkscape"
   width="35"
   height="54"
   viewBox="0 0 9.2604164 14.287499"
   version="1.1"
   id="svg873"
   inkscape:version="0.92.4 5da689c313, 2019-01-14"
   sodipodi:docname="drop.svg">
  <defs
     id="defs867" />
  <sodipodi:namedview
     id="base"
     pagecolor="#5e5e5e"
     bordercolor="#666666"
     borderopacity="1.0"
     inkscape:pageopacity="0"
     inkscape:pageshadow="2"
     inkscape:zoom="5.6"
     inkscape:cx="7.8677329"
     inkscape:cy="16.392325"
     inkscape:document-units="mm"
     inkscape:current-layer="layer1"
     showgrid="true"
     inkscape:window-width="960"
     inkscape:window-height="1029"
     inkscape:window-x="1920"
     inkscape:window-y="25"
     inkscape:window-maximized="0"
     fit-margin-top="0"
     fit-margin-left="0"
     fit-margin-right="0"
     fit-margin-bottom="0"
     inkscape:snap-global="false"
     units="px">
    <inkscape:grid
       type="xygrid"
       id="grid1418"
       originx="-52.285941"
       originy="-139.23724" />
  </sodipodi:namedview>
  <metadata
     id="metadata870">
    <rdf:RDF>
      <cc:Work
         rdf:about="">
        <dc:format>image/svg+xml</dc:format>
        <dc:type
           rdf:resource="http://purl.org/dc/dcmitype/StillImage" />
        <dc:title></dc:title>
      </cc:Work>
    </rdf:RDF>
  </metadata>
  <g
     inkscape:groupmode="layer"
     id="layer2"
     inkscape:label="Layer 2"
     sodipodi:insensitive="true"
     style="display:none;opacity:0.23000004"
     transform="translate(1.453556,4.3289489)">
    <path
       transform="translate(-53.7395,-147.8042)"
       inkscape:connector-curvature="0"
       style="color:#000000;font-style:normal;font-variant:normal;font-weight:normal;font-stretch:normal;font-size:medium;line-height:normal;font-family:sans-serif;font-variant-ligatures:normal;font-variant-position:normal;font-variant-caps:normal;font-variant-numeric:normal;font-variant-alternates:normal;font-feature-settings:normal;text-indent:0;text-align:start;text-decoration:none;text-decoration-line:none;text-decoration-style:solid;text-decoration-color:#000000;letter-spacing:normal;word-spacing:normal;text-transform:none;writing-mode:lr-tb;direction:ltr;text-orientation:mixed;dominant-baseline:auto;baseline-shift:baseline;text-anchor:start;white-space:normal;shape-padding:0;clip-rule:nonzero;display:inline;overflow:visible;visibility:visible;opacity:1;isolation:auto;mix-blend-mode:normal;color-interpolation:sRGB;color-interpolation-filters:linearRGB;solid-color:#000000;solid-opacity:1;vector-effect:none;fill:#ffffff;fill-opacity:1;fill-rule:nonzero;stroke:none;stroke-width:0.8607232;stroke-linecap:round;stroke-linejoin:round;stroke-miterlimit:4;stroke-dasharray:none;stroke-dashoffset:0;stroke-opacity:1;paint-order:normal;color-rendering:auto;image-rendering:auto;shape-rendering:auto;text-rendering:auto;enable-background:accumulate"
       d="m 56.931073,143.72357 c -0.373394,-0.001 -0.746712,0.0934 -1.081283,0.28579 -0.667285,0.38372 -1.078809,1.09592 -1.078594,1.86535 h -3.36e-4 v 6.50014 c -0.818733,0.83568 -1.084415,2.07933 -0.662018,3.183 0.446303,1.16612 1.569924,1.93853 2.818533,1.93662 1.248608,-0.002 2.369419,-0.77654 2.812144,-1.94402 0.416956,-1.09951 0.152503,-2.33735 -0.659328,-3.17056 v -2.80138 a 0.43040464,0.43040464 0 0 0 0,-0.17618 v -1.37279 a 0.43040464,0.43040464 0 0 0 0,-0.17651 v -1.97832 h -0.0061 c 2.13e-4,-0.76247 -0.403998,-1.47 -1.062791,-1.85627 -0.332932,-0.19522 -0.706888,-0.29329 -1.080275,-0.29487 z m -0.0031,0.85938 c 0.223672,6.5e-4 0.447311,0.06 0.647561,0.17753 0.395998,0.23219 0.63666,0.65598 0.6368,1.11423 h -0.004 v 0.0854 H 57.4394 a 0.43078561,0.43078561 0 1 0 0,0.8614 h 0.768935 v 0.68891 H 57.4394 a 0.43040464,0.43040464 0 1 0 0,0.86005 h 0.768935 v 0.68892 H 57.4394 a 0.43040464,0.43040464 0 1 0 0,0.86038 h 0.768935 v 2.55897 a 0.43040464,0.43040464 0 0 0 0.143566,0.39405 c 0.668485,0.59399 0.900418,1.53522 0.583342,2.37136 -0.317082,0.83615 -1.115006,1.38756 -2.009251,1.38893 -0.894252,0.001 -1.693304,-0.54736 -2.012949,-1.38254 -0.31964,-0.83517 -0.09072,-1.77668 0.575945,-2.37271 a 0.43061875,0.43061875 0 0 0 0.141548,-0.28948 h 6.51e-4 v -0.006 a 0.43061875,0.43061875 0 0 0 0,-0.0538 v -6.64557 a 0.43040464,0.43040464 0 0 0 0,-0.005 c -0.0013,-0.46426 0.245431,-0.89187 0.647895,-1.12331 0.201235,-0.11571 0.425233,-0.17335 0.648905,-0.17248 z m -0.0121,5.84754 a 0.43040464,0.43040464 0 0 0 -0.423302,0.43574 v 2.33135 c -0.535447,0.18149 -0.92494,0.69013 -0.92494,1.28403 0,0.74397 0.610653,1.35597 1.35463,1.35597 0.74397,0 1.355975,-0.612 1.355975,-1.35597 0,-0.59352 -0.390027,-1.1019 -0.925278,-1.28369 v -2.33169 a 0.43040464,0.43040464 0 0 0 -0.437085,-0.43574 z"
       id="path817" />
  </g>
  <g
     inkscape:label="Layer 1"
     inkscape:groupmode="layer"
     id="layer1"
     transform="translate(-52.285943,-143.47525)">
    <path
       style="fill:#ffffff;fill-opacity:1;stroke:#ffffff;stroke-width:1.17376709;stroke-linecap:round;stroke-linejoin:round;stroke-miterlimit:4;stroke-dasharray:none;stroke-opacity:1"
       d="m 53.801394,152.32195 c -0.02932,4.56855 6.235253,4.51439 6.229609,0 1e-6,-2.16747 -1.245919,-4.33495 -3.114803,-6.81208 -1.868881,2.47713 -3.114806,4.64461 -3.114806,6.81208 z"
       id="path1422"
       inkscape:connector-curvature="0"
       sodipodi:nodetypes="cccc" />
  </g>
</svg>
