<?xml version="1.0" encoding="UTF-8" standalone="no"?>
<!-- Created with Inkscape (http://www.inkscape.org/) -->

<svg
   xmlns:dc="http://purl.org/dc/elements/1.1/"
   xmlns:cc="http://creativecommons.org/ns#"
   xmlns:rdf="http://www.w3.org/1999/02/22-rdf-syntax-ns#"
   xmlns:svg="http://www.w3.org/2000/svg"
   xmlns="http://www.w3.org/2000/svg"
   xmlns:sodipodi="http://sodipodi.sourceforge.net/DTD/sodipodi-0.dtd"
   xmlns:inkscape="http://www.inkscape.org/namespaces/inkscape"
   width="35mm"
   height="54mm"
   viewBox="0 0 35 54.000001"
   version="1.1"
   id="svg8"
   sodipodi:docname="temp.svg"
   inkscape:version="0.92.4 5da689c313, 2019-01-14">
  <defs
     id="defs2" />
  <sodipodi:namedview
     id="base"
     pagecolor="#979797"
     bordercolor="#666666"
     borderopacity="1.0"
     inkscape:pageopacity="0"
     inkscape:pageshadow="2"
     inkscape:zoom="1.979899"
     inkscape:cx="74.423643"
     inkscape:cy="61.992099"
     inkscape:document-units="mm"
     inkscape:current-layer="layer1"
     showgrid="true"
     inkscape:window-width="960"
     inkscape:window-height="1029"
     inkscape:window-x="2880"
     inkscape:window-y="25"
     inkscape:window-maximized="0"
     fit-margin-top="0"
     fit-margin-left="0"
     fit-margin-right="0"
     fit-margin-bottom="0">
    <inkscape:grid
       type="xygrid"
       id="grid815"
       originx="-143.53691"
       originy="-166.02605" />
  </sodipodi:namedview>
  <metadata
     id="metadata5">
    <rdf:RDF>
      <cc:Work
         rdf:about="">
        <dc:format>image/svg+xml</dc:format>
        <dc:type
           rdf:resource="http://purl.org/dc/dcmitype/StillImage" />
        <dc:title></dc:title>
      </cc:Work>
    </rdf:RDF>
  </metadata>
  <g
     inkscape:label="Layer 1"
     inkscape:groupmode="layer"
     id="layer1"
     transform="translate(-143.53691,-76.973962)">
    <path
       style="color:#000000;font-style:normal;font-variant:normal;font-weight:normal;font-stretch:normal;font-size:medium;line-height:normal;font-family:sans-serif;font-variant-ligatures:normal;font-variant-position:normal;font-variant-caps:normal;font-variant-numeric:normal;font-variant-alternates:normal;font-feature-settings:normal;text-indent:0;text-align:start;text-decoration:none;text-decoration-line:none;text-decoration-style:solid;text-decoration-color:#000000;letter-spacing:normal;word-spacing:normal;text-transform:none;writing-mode:lr-tb;direction:ltr;text-orientation:mixed;dominant-baseline:auto;baseline-shift:baseline;text-anchor:start;white-space:normal;shape-padding:0;clip-rule:nonzero;display:inline;overflow:visible;visibility:visible;opacity:1;isolation:auto;mix-blend-mode:normal;color-interpolation:sRGB;color-interpolation-filters:linearRGB;solid-color:#000000;solid-opacity:1;vector-effect:none;fill:#ffffff;fill-opacity:1;fill-rule:nonzero;stroke:none;stroke-width:3.19731808;stroke-linecap:round;stroke-linejoin:round;stroke-miterlimit:4;stroke-dasharray:none;stroke-dashoffset:0;stroke-opacity:1;paint-order:normal;color-rendering:auto;image-rendering:auto;shape-rendering:auto;text-rendering:auto;enable-background:accumulate"
       d="m 161.06819,78.396684 c -1.38704,-0.0048 -2.7738,0.346916 -4.01663,1.061609 -2.47875,1.425393 -4.00744,4.070997 -4.00664,6.929188 h -10e-4 v 24.145999 c -3.04134,3.10427 -4.02826,7.72407 -2.45919,11.82383 1.65788,4.33178 5.83178,7.20107 10.46997,7.19397 4.63819,-0.007 8.80166,-2.88461 10.44624,-7.22144 1.54886,-4.08435 0.5665,-8.68255 -2.4492,-11.77762 v -10.40628 a 1.5988188,1.5988188 0 0 0 0,-0.654455 v -5.099469 a 1.5988188,1.5988188 0 0 0 0,-0.655699 v -7.348836 h -0.0225 c 7.9e-4,-2.832349 -1.50072,-5.460601 -3.94794,-6.895466 -1.23673,-0.725158 -2.62586,-1.089483 -4.01288,-1.095331 z m -0.0112,3.192322 c 0.83087,0.0032 1.66162,0.223069 2.40548,0.659447 1.47101,0.862518 2.36499,2.436769 2.36552,4.139028 h -0.015 v 0.317234 h -2.85635 a 1.600234,1.600234 0 1 0 0,3.199816 h 2.85635 v 2.559103 h -2.85635 a 1.5988188,1.5988188 0 1 0 0,3.19482 h 2.85635 v 2.559103 h -2.85635 a 1.5988188,1.5988188 0 1 0 0,3.196073 h 2.85635 v 9.50578 a 1.5988188,1.5988188 0 0 0 0.5333,1.46377 c 2.48322,2.20648 3.34477,5.70284 2.16694,8.80886 -1.17787,3.10604 -4.1419,5.15435 -7.46374,5.15942 -3.32187,0.005 -6.2901,-2.03327 -7.47748,-5.13569 -1.18736,-3.10241 -0.33699,-6.59981 2.13945,-8.81386 a 1.5996142,1.5996142 0 0 0 0.52581,-1.07534 h 0.003 v -0.0225 a 1.5996142,1.5996142 0 0 0 0,-0.19983 V 86.418704 a 1.5988188,1.5988188 0 0 0 0,-0.01624 c -0.005,-1.724582 0.9117,-3.313021 2.40673,-4.17275 0.74753,-0.429852 1.57961,-0.643914 2.41048,-0.640712 z m -0.045,21.721784 a 1.5988188,1.5988188 0 0 0 -1.57243,1.61864 v 8.66024 c -1.98903,0.67418 -3.43587,2.56361 -3.43587,4.76975 0,2.76364 2.26838,5.03702 5.03203,5.03702 2.76362,0 5.03702,-2.27338 5.03702,-5.03702 0,-2.20475 -1.44883,-4.09321 -3.43711,-4.7685 v -8.66149 a 1.5988188,1.5988188 0 0 0 -1.62364,-1.61864 z"
       id="path817"
       inkscape:connector-curvature="0" />
  </g>
</svg>
