M48
; DRILL file {KiCad 5.1.6} date Sun Jul 19 12:52:48 2020
; FORMAT={-:-/ absolute / inch / decimal}
; #@! TF.CreationDate,2020-07-19T12:52:48+12:00
; #@! TF.GenerationSoftware,Kicad,Pcbnew,5.1.6
FMAT,2
INCH
T1C0.0276
T2C0.0315
T3C0.0394
T4C0.0433
T5C0.1260
%
G90
G05
T1
X1.6Y-1.35
X1.6Y-1.65
T2
X0.35Y-0.2
X0.35Y-0.3
X0.35Y-0.4
X0.35Y-0.5
X0.35Y-0.6
X0.35Y-0.7
X0.35Y-0.8
X0.35Y-0.9
X0.35Y-1.0
X0.35Y-1.1
X0.35Y-1.2
X0.35Y-1.3
X0.35Y-1.4
X0.35Y-1.5
X0.35Y-1.6
X1.35Y-0.2
X1.35Y-0.3
X1.35Y-0.4
X1.35Y-0.5
X1.35Y-0.6
X1.35Y-0.7
X1.35Y-0.8
X1.35Y-0.9
X1.35Y-1.0
X1.35Y-1.1
X1.35Y-1.2
X1.35Y-1.3
X1.35Y-1.4
X1.35Y-1.5
X1.35Y-1.6
X1.6Y-0.2
X1.7Y-0.2
X1.8Y-0.2
X1.9Y-0.2
X1.6Y-0.5
X1.7Y-0.5
X1.8Y-0.5
X1.9Y-0.5
T3
X2.15Y-0.4
X2.15Y-0.6
X2.15Y-1.2
X2.15Y-1.4
X2.15Y-0.8
X2.15Y-1.0
T4
X1.85Y-1.4
X1.85Y-1.5
X1.85Y-1.6
T5
X0.15Y-0.15
X0.15Y-1.65
X2.15Y-0.15
X2.15Y-1.65
T0
M30
