%TF.GenerationSoftware,KiCad,Pcbnew,5.1.6*%
%TF.CreationDate,2020-07-18T11:56:48+12:00*%
%TF.ProjectId,microbit-enviromonitor-board,6d696372-6f62-4697-942d-656e7669726f,rev?*%
%TF.SameCoordinates,Original*%
%TF.FileFunction,Copper,L2,Bot*%
%TF.FilePolarity,Positive*%
%FSLAX46Y46*%
G04 Gerber Fmt 4.6, Leading zero omitted, Abs format (unit mm)*
G04 Created by KiCad (PCBNEW 5.1.6) date 2020-07-18 11:56:48*
%MOMM*%
%LPD*%
G01*
G04 APERTURE LIST*
%TA.AperFunction,ComponentPad*%
%ADD10C,2.000000*%
%TD*%
%TA.AperFunction,ComponentPad*%
%ADD11R,2.000000X2.000000*%
%TD*%
%TA.AperFunction,ComponentPad*%
%ADD12C,6.400000*%
%TD*%
%TA.AperFunction,ComponentPad*%
%ADD13O,1.400000X1.400000*%
%TD*%
%TA.AperFunction,ComponentPad*%
%ADD14C,1.400000*%
%TD*%
%TA.AperFunction,ComponentPad*%
%ADD15O,2.000000X1.905000*%
%TD*%
%TA.AperFunction,ComponentPad*%
%ADD16R,2.000000X1.905000*%
%TD*%
%TA.AperFunction,Conductor*%
%ADD17C,1.400000*%
%TD*%
%TA.AperFunction,Conductor*%
%ADD18C,0.254000*%
%TD*%
G04 APERTURE END LIST*
D10*
%TO.P,J2,4*%
%TO.N,GND*%
X43180000Y-19050000D03*
%TO.P,J2,3*%
%TO.N,+3V3*%
X43180000Y-16510000D03*
%TO.P,J2,2*%
%TO.N,Net-(E1-Pad12)*%
X43180000Y-13970000D03*
D11*
%TO.P,J2,1*%
%TO.N,Net-(E1-Pad13)*%
X43180000Y-11430000D03*
%TD*%
D12*
%TO.P,REF\u002A\u002A,1*%
%TO.N,N/C*%
X3810000Y-58420000D03*
%TD*%
%TO.P,REF\u002A\u002A,1*%
%TO.N,N/C*%
X41910000Y-58420000D03*
%TD*%
%TO.P,REF\u002A\u002A,1*%
%TO.N,N/C*%
X41910000Y-3810000D03*
%TD*%
%TO.P,REF\u002A\u002A,1*%
%TO.N,N/C*%
X3810000Y-3810000D03*
%TD*%
D13*
%TO.P,R1,2*%
%TO.N,/PUMP*%
X31750000Y-53975000D03*
D14*
%TO.P,R1,1*%
%TO.N,Net-(Q1-Pad1)*%
X31750000Y-46355000D03*
%TD*%
D10*
%TO.P,U1,4*%
%TO.N,+3V3*%
X31750000Y-25400000D03*
%TO.P,U1,3*%
%TO.N,GND*%
X34290000Y-25400000D03*
%TO.P,U1,2*%
%TO.N,+12V*%
X36830000Y-25400000D03*
D11*
%TO.P,U1,1*%
%TO.N,Net-(U1-Pad1)*%
X39370000Y-25400000D03*
%TD*%
D15*
%TO.P,Q1,3*%
%TO.N,GND*%
X38100000Y-47625000D03*
%TO.P,Q1,2*%
%TO.N,Net-(J4-Pad2)*%
X38100000Y-50165000D03*
D16*
%TO.P,Q1,1*%
%TO.N,Net-(Q1-Pad1)*%
X38100000Y-52705000D03*
%TD*%
D10*
%TO.P,E1,30*%
%TO.N,Net-(E1-Pad30)*%
X2540000Y-10160000D03*
%TO.P,E1,29*%
%TO.N,Net-(E1-Pad29)*%
X2540000Y-12700000D03*
%TO.P,E1,28*%
%TO.N,Net-(E1-Pad28)*%
X2540000Y-15240000D03*
%TO.P,E1,27*%
%TO.N,Net-(E1-Pad27)*%
X2540000Y-17780000D03*
%TO.P,E1,26*%
%TO.N,Net-(E1-Pad26)*%
X2540000Y-20320000D03*
%TO.P,E1,25*%
%TO.N,Net-(E1-Pad25)*%
X2540000Y-22860000D03*
%TO.P,E1,24*%
%TO.N,Net-(E1-Pad24)*%
X2540000Y-25400000D03*
%TO.P,E1,23*%
%TO.N,Net-(E1-Pad23)*%
X2540000Y-27940000D03*
%TO.P,E1,22*%
%TO.N,Net-(E1-Pad22)*%
X2540000Y-30480000D03*
%TO.P,E1,21*%
%TO.N,Net-(E1-Pad21)*%
X2540000Y-33020000D03*
%TO.P,E1,20*%
%TO.N,Net-(E1-Pad20)*%
X2540000Y-35560000D03*
%TO.P,E1,19*%
%TO.N,Net-(E1-Pad19)*%
X2540000Y-38100000D03*
%TO.P,E1,18*%
%TO.N,Net-(E1-Pad18)*%
X2540000Y-40640000D03*
%TO.P,E1,17*%
%TO.N,Net-(E1-Pad17)*%
X2540000Y-43180000D03*
%TO.P,E1,16*%
%TO.N,Net-(E1-Pad16)*%
X2540000Y-45720000D03*
%TO.P,E1,15*%
%TO.N,/PUMP*%
X27940000Y-10160000D03*
%TO.P,E1,14*%
%TO.N,Net-(E1-Pad14)*%
X27940000Y-12700000D03*
%TO.P,E1,13*%
%TO.N,Net-(E1-Pad13)*%
X27940000Y-15240000D03*
%TO.P,E1,12*%
%TO.N,Net-(E1-Pad12)*%
X27940000Y-17780000D03*
%TO.P,E1,11*%
%TO.N,Net-(E1-Pad11)*%
X27940000Y-20320000D03*
%TO.P,E1,10*%
%TO.N,Net-(E1-Pad10)*%
X27940000Y-22860000D03*
%TO.P,E1,9*%
%TO.N,Net-(E1-Pad9)*%
X27940000Y-25400000D03*
%TO.P,E1,8*%
%TO.N,Net-(E1-Pad8)*%
X27940000Y-27940000D03*
%TO.P,E1,7*%
%TO.N,Net-(E1-Pad7)*%
X27940000Y-30480000D03*
%TO.P,E1,6*%
%TO.N,Net-(E1-Pad6)*%
X27940000Y-33020000D03*
%TO.P,E1,5*%
%TO.N,Net-(E1-Pad5)*%
X27940000Y-35560000D03*
%TO.P,E1,4*%
%TO.N,Net-(E1-Pad4)*%
X27940000Y-38100000D03*
%TO.P,E1,3*%
%TO.N,Net-(E1-Pad3)*%
X27940000Y-40640000D03*
%TO.P,E1,2*%
%TO.N,GND*%
X27940000Y-43180000D03*
D11*
%TO.P,E1,1*%
%TO.N,+3V3*%
X27940000Y-45720000D03*
%TD*%
D10*
%TO.P,J4,2*%
%TO.N,Net-(J4-Pad2)*%
X43180000Y-50800000D03*
D11*
%TO.P,J4,1*%
%TO.N,+12V*%
X43180000Y-45720000D03*
%TD*%
D10*
%TO.P,J3,2*%
%TO.N,GND*%
X43180000Y-30226000D03*
D11*
%TO.P,J3,1*%
%TO.N,+3V3*%
X43180000Y-25146000D03*
%TD*%
D10*
%TO.P,J1,2*%
%TO.N,+12V*%
X43180000Y-40640000D03*
D11*
%TO.P,J1,1*%
%TO.N,GND*%
X43180000Y-35560000D03*
%TD*%
D17*
%TO.N,/PUMP*%
X26670000Y-10160000D02*
X27940000Y-10160000D01*
X24130000Y-12700000D02*
X26670000Y-10160000D01*
X24130000Y-50800000D02*
X24130000Y-12700000D01*
X27305000Y-53975000D02*
X24130000Y-50800000D01*
X31750000Y-53975000D02*
X27305000Y-53975000D01*
%TO.N,Net-(E1-Pad13)*%
X35560000Y-15240000D02*
X39370000Y-11430000D01*
X27940000Y-15240000D02*
X35560000Y-15240000D01*
X39370000Y-11430000D02*
X43180000Y-11430000D01*
%TO.N,Net-(E1-Pad12)*%
X36830000Y-17780000D02*
X27940000Y-17780000D01*
X40640000Y-13970000D02*
X36830000Y-17780000D01*
X40640000Y-13970000D02*
X43180000Y-13970000D01*
%TO.N,+3V3*%
X43180000Y-25146000D02*
X43180000Y-24130000D01*
X43180000Y-24130000D02*
X41910000Y-22860000D01*
X31750000Y-23985787D02*
X31750000Y-25400000D01*
X32875787Y-22860000D02*
X31750000Y-23985787D01*
X29210000Y-45720000D02*
X27940000Y-45720000D01*
X31750000Y-43180000D02*
X29210000Y-45720000D01*
X31750000Y-25400000D02*
X31750000Y-43180000D01*
X35560000Y-22715787D02*
X35560000Y-22860000D01*
X41765787Y-16510000D02*
X35560000Y-22715787D01*
X43180000Y-16510000D02*
X41765787Y-16510000D01*
X35560000Y-22860000D02*
X32875787Y-22860000D01*
X41910000Y-22860000D02*
X35560000Y-22860000D01*
%TO.N,+12V*%
X43180000Y-40640000D02*
X43180000Y-45720000D01*
X36830000Y-34290000D02*
X43180000Y-40640000D01*
X36830000Y-25400000D02*
X36830000Y-34290000D01*
%TO.N,Net-(J4-Pad2)*%
X42545000Y-50165000D02*
X43180000Y-50800000D01*
X38100000Y-50165000D02*
X42545000Y-50165000D01*
%TO.N,Net-(Q1-Pad1)*%
X36475051Y-52705000D02*
X38100000Y-52705000D01*
X31750000Y-47979949D02*
X36475051Y-52705000D01*
X31750000Y-46990000D02*
X31750000Y-47979949D01*
%TD*%
D18*
%TO.N,GND*%
G36*
X40881212Y-418540D02*
G01*
X40239339Y-684413D01*
X39661668Y-1070400D01*
X39170400Y-1561668D01*
X38784413Y-2139339D01*
X38518540Y-2781212D01*
X38383000Y-3462621D01*
X38383000Y-4157379D01*
X38518540Y-4838788D01*
X38784413Y-5480661D01*
X39170400Y-6058332D01*
X39661668Y-6549600D01*
X40239339Y-6935587D01*
X40881212Y-7201460D01*
X41562621Y-7337000D01*
X42257379Y-7337000D01*
X42938788Y-7201460D01*
X43580661Y-6935587D01*
X44158332Y-6549600D01*
X44649600Y-6058332D01*
X45035587Y-5480661D01*
X45301460Y-4838788D01*
X45368001Y-4504262D01*
X45368000Y-57725733D01*
X45301460Y-57391212D01*
X45035587Y-56749339D01*
X44649600Y-56171668D01*
X44158332Y-55680400D01*
X43580661Y-55294413D01*
X42938788Y-55028540D01*
X42257379Y-54893000D01*
X41562621Y-54893000D01*
X40881212Y-55028540D01*
X40239339Y-55294413D01*
X39661668Y-55680400D01*
X39170400Y-56171668D01*
X38784413Y-56749339D01*
X38518540Y-57391212D01*
X38383000Y-58072621D01*
X38383000Y-58767379D01*
X38518540Y-59448788D01*
X38784413Y-60090661D01*
X39170400Y-60668332D01*
X39661668Y-61159600D01*
X40239339Y-61545587D01*
X40881212Y-61811460D01*
X41215733Y-61878000D01*
X4504267Y-61878000D01*
X4838788Y-61811460D01*
X5480661Y-61545587D01*
X6058332Y-61159600D01*
X6549600Y-60668332D01*
X6935587Y-60090661D01*
X7201460Y-59448788D01*
X7337000Y-58767379D01*
X7337000Y-58072621D01*
X7201460Y-57391212D01*
X6935587Y-56749339D01*
X6549600Y-56171668D01*
X6058332Y-55680400D01*
X5480661Y-55294413D01*
X4838788Y-55028540D01*
X4157379Y-54893000D01*
X3462621Y-54893000D01*
X2781212Y-55028540D01*
X2139339Y-55294413D01*
X1561668Y-55680400D01*
X1070400Y-56171668D01*
X684413Y-56749339D01*
X418540Y-57391212D01*
X352000Y-57725733D01*
X352000Y-10029302D01*
X1213000Y-10029302D01*
X1213000Y-10290698D01*
X1263996Y-10547072D01*
X1364028Y-10788570D01*
X1509252Y-11005913D01*
X1694087Y-11190748D01*
X1911430Y-11335972D01*
X2138433Y-11430000D01*
X1911430Y-11524028D01*
X1694087Y-11669252D01*
X1509252Y-11854087D01*
X1364028Y-12071430D01*
X1263996Y-12312928D01*
X1213000Y-12569302D01*
X1213000Y-12830698D01*
X1263996Y-13087072D01*
X1364028Y-13328570D01*
X1509252Y-13545913D01*
X1694087Y-13730748D01*
X1911430Y-13875972D01*
X2138433Y-13970000D01*
X1911430Y-14064028D01*
X1694087Y-14209252D01*
X1509252Y-14394087D01*
X1364028Y-14611430D01*
X1263996Y-14852928D01*
X1213000Y-15109302D01*
X1213000Y-15370698D01*
X1263996Y-15627072D01*
X1364028Y-15868570D01*
X1509252Y-16085913D01*
X1694087Y-16270748D01*
X1911430Y-16415972D01*
X2138433Y-16510000D01*
X1911430Y-16604028D01*
X1694087Y-16749252D01*
X1509252Y-16934087D01*
X1364028Y-17151430D01*
X1263996Y-17392928D01*
X1213000Y-17649302D01*
X1213000Y-17910698D01*
X1263996Y-18167072D01*
X1364028Y-18408570D01*
X1509252Y-18625913D01*
X1694087Y-18810748D01*
X1911430Y-18955972D01*
X2138433Y-19050000D01*
X1911430Y-19144028D01*
X1694087Y-19289252D01*
X1509252Y-19474087D01*
X1364028Y-19691430D01*
X1263996Y-19932928D01*
X1213000Y-20189302D01*
X1213000Y-20450698D01*
X1263996Y-20707072D01*
X1364028Y-20948570D01*
X1509252Y-21165913D01*
X1694087Y-21350748D01*
X1911430Y-21495972D01*
X2138433Y-21590000D01*
X1911430Y-21684028D01*
X1694087Y-21829252D01*
X1509252Y-22014087D01*
X1364028Y-22231430D01*
X1263996Y-22472928D01*
X1213000Y-22729302D01*
X1213000Y-22990698D01*
X1263996Y-23247072D01*
X1364028Y-23488570D01*
X1509252Y-23705913D01*
X1694087Y-23890748D01*
X1911430Y-24035972D01*
X2138433Y-24130000D01*
X1911430Y-24224028D01*
X1694087Y-24369252D01*
X1509252Y-24554087D01*
X1364028Y-24771430D01*
X1263996Y-25012928D01*
X1213000Y-25269302D01*
X1213000Y-25530698D01*
X1263996Y-25787072D01*
X1364028Y-26028570D01*
X1509252Y-26245913D01*
X1694087Y-26430748D01*
X1911430Y-26575972D01*
X2138433Y-26670000D01*
X1911430Y-26764028D01*
X1694087Y-26909252D01*
X1509252Y-27094087D01*
X1364028Y-27311430D01*
X1263996Y-27552928D01*
X1213000Y-27809302D01*
X1213000Y-28070698D01*
X1263996Y-28327072D01*
X1364028Y-28568570D01*
X1509252Y-28785913D01*
X1694087Y-28970748D01*
X1911430Y-29115972D01*
X2138433Y-29210000D01*
X1911430Y-29304028D01*
X1694087Y-29449252D01*
X1509252Y-29634087D01*
X1364028Y-29851430D01*
X1263996Y-30092928D01*
X1213000Y-30349302D01*
X1213000Y-30610698D01*
X1263996Y-30867072D01*
X1364028Y-31108570D01*
X1509252Y-31325913D01*
X1694087Y-31510748D01*
X1911430Y-31655972D01*
X2138433Y-31750000D01*
X1911430Y-31844028D01*
X1694087Y-31989252D01*
X1509252Y-32174087D01*
X1364028Y-32391430D01*
X1263996Y-32632928D01*
X1213000Y-32889302D01*
X1213000Y-33150698D01*
X1263996Y-33407072D01*
X1364028Y-33648570D01*
X1509252Y-33865913D01*
X1694087Y-34050748D01*
X1911430Y-34195972D01*
X2138433Y-34290000D01*
X1911430Y-34384028D01*
X1694087Y-34529252D01*
X1509252Y-34714087D01*
X1364028Y-34931430D01*
X1263996Y-35172928D01*
X1213000Y-35429302D01*
X1213000Y-35690698D01*
X1263996Y-35947072D01*
X1364028Y-36188570D01*
X1509252Y-36405913D01*
X1694087Y-36590748D01*
X1911430Y-36735972D01*
X2138433Y-36830000D01*
X1911430Y-36924028D01*
X1694087Y-37069252D01*
X1509252Y-37254087D01*
X1364028Y-37471430D01*
X1263996Y-37712928D01*
X1213000Y-37969302D01*
X1213000Y-38230698D01*
X1263996Y-38487072D01*
X1364028Y-38728570D01*
X1509252Y-38945913D01*
X1694087Y-39130748D01*
X1911430Y-39275972D01*
X2138433Y-39370000D01*
X1911430Y-39464028D01*
X1694087Y-39609252D01*
X1509252Y-39794087D01*
X1364028Y-40011430D01*
X1263996Y-40252928D01*
X1213000Y-40509302D01*
X1213000Y-40770698D01*
X1263996Y-41027072D01*
X1364028Y-41268570D01*
X1509252Y-41485913D01*
X1694087Y-41670748D01*
X1911430Y-41815972D01*
X2138433Y-41910000D01*
X1911430Y-42004028D01*
X1694087Y-42149252D01*
X1509252Y-42334087D01*
X1364028Y-42551430D01*
X1263996Y-42792928D01*
X1213000Y-43049302D01*
X1213000Y-43310698D01*
X1263996Y-43567072D01*
X1364028Y-43808570D01*
X1509252Y-44025913D01*
X1694087Y-44210748D01*
X1911430Y-44355972D01*
X2138433Y-44450000D01*
X1911430Y-44544028D01*
X1694087Y-44689252D01*
X1509252Y-44874087D01*
X1364028Y-45091430D01*
X1263996Y-45332928D01*
X1213000Y-45589302D01*
X1213000Y-45850698D01*
X1263996Y-46107072D01*
X1364028Y-46348570D01*
X1509252Y-46565913D01*
X1694087Y-46750748D01*
X1911430Y-46895972D01*
X2152928Y-46996004D01*
X2409302Y-47047000D01*
X2670698Y-47047000D01*
X2927072Y-46996004D01*
X3168570Y-46895972D01*
X3385913Y-46750748D01*
X3570748Y-46565913D01*
X3715972Y-46348570D01*
X3816004Y-46107072D01*
X3867000Y-45850698D01*
X3867000Y-45589302D01*
X3816004Y-45332928D01*
X3715972Y-45091430D01*
X3570748Y-44874087D01*
X3385913Y-44689252D01*
X3168570Y-44544028D01*
X2941567Y-44450000D01*
X3168570Y-44355972D01*
X3385913Y-44210748D01*
X3570748Y-44025913D01*
X3715972Y-43808570D01*
X3816004Y-43567072D01*
X3867000Y-43310698D01*
X3867000Y-43049302D01*
X3816004Y-42792928D01*
X3715972Y-42551430D01*
X3570748Y-42334087D01*
X3385913Y-42149252D01*
X3168570Y-42004028D01*
X2941567Y-41910000D01*
X3168570Y-41815972D01*
X3385913Y-41670748D01*
X3570748Y-41485913D01*
X3715972Y-41268570D01*
X3816004Y-41027072D01*
X3867000Y-40770698D01*
X3867000Y-40509302D01*
X3816004Y-40252928D01*
X3715972Y-40011430D01*
X3570748Y-39794087D01*
X3385913Y-39609252D01*
X3168570Y-39464028D01*
X2941567Y-39370000D01*
X3168570Y-39275972D01*
X3385913Y-39130748D01*
X3570748Y-38945913D01*
X3715972Y-38728570D01*
X3816004Y-38487072D01*
X3867000Y-38230698D01*
X3867000Y-37969302D01*
X3816004Y-37712928D01*
X3715972Y-37471430D01*
X3570748Y-37254087D01*
X3385913Y-37069252D01*
X3168570Y-36924028D01*
X2941567Y-36830000D01*
X3168570Y-36735972D01*
X3385913Y-36590748D01*
X3570748Y-36405913D01*
X3715972Y-36188570D01*
X3816004Y-35947072D01*
X3867000Y-35690698D01*
X3867000Y-35429302D01*
X3816004Y-35172928D01*
X3715972Y-34931430D01*
X3570748Y-34714087D01*
X3385913Y-34529252D01*
X3168570Y-34384028D01*
X2941567Y-34290000D01*
X3168570Y-34195972D01*
X3385913Y-34050748D01*
X3570748Y-33865913D01*
X3715972Y-33648570D01*
X3816004Y-33407072D01*
X3867000Y-33150698D01*
X3867000Y-32889302D01*
X3816004Y-32632928D01*
X3715972Y-32391430D01*
X3570748Y-32174087D01*
X3385913Y-31989252D01*
X3168570Y-31844028D01*
X2941567Y-31750000D01*
X3168570Y-31655972D01*
X3385913Y-31510748D01*
X3570748Y-31325913D01*
X3715972Y-31108570D01*
X3816004Y-30867072D01*
X3867000Y-30610698D01*
X3867000Y-30349302D01*
X3816004Y-30092928D01*
X3715972Y-29851430D01*
X3570748Y-29634087D01*
X3385913Y-29449252D01*
X3168570Y-29304028D01*
X2941567Y-29210000D01*
X3168570Y-29115972D01*
X3385913Y-28970748D01*
X3570748Y-28785913D01*
X3715972Y-28568570D01*
X3816004Y-28327072D01*
X3867000Y-28070698D01*
X3867000Y-27809302D01*
X3816004Y-27552928D01*
X3715972Y-27311430D01*
X3570748Y-27094087D01*
X3385913Y-26909252D01*
X3168570Y-26764028D01*
X2941567Y-26670000D01*
X3168570Y-26575972D01*
X3385913Y-26430748D01*
X3570748Y-26245913D01*
X3715972Y-26028570D01*
X3816004Y-25787072D01*
X3867000Y-25530698D01*
X3867000Y-25269302D01*
X3816004Y-25012928D01*
X3715972Y-24771430D01*
X3570748Y-24554087D01*
X3385913Y-24369252D01*
X3168570Y-24224028D01*
X2941567Y-24130000D01*
X3168570Y-24035972D01*
X3385913Y-23890748D01*
X3570748Y-23705913D01*
X3715972Y-23488570D01*
X3816004Y-23247072D01*
X3867000Y-22990698D01*
X3867000Y-22729302D01*
X3816004Y-22472928D01*
X3715972Y-22231430D01*
X3570748Y-22014087D01*
X3385913Y-21829252D01*
X3168570Y-21684028D01*
X2941567Y-21590000D01*
X3168570Y-21495972D01*
X3385913Y-21350748D01*
X3570748Y-21165913D01*
X3715972Y-20948570D01*
X3816004Y-20707072D01*
X3867000Y-20450698D01*
X3867000Y-20189302D01*
X3816004Y-19932928D01*
X3715972Y-19691430D01*
X3570748Y-19474087D01*
X3385913Y-19289252D01*
X3168570Y-19144028D01*
X2941567Y-19050000D01*
X3168570Y-18955972D01*
X3385913Y-18810748D01*
X3570748Y-18625913D01*
X3715972Y-18408570D01*
X3816004Y-18167072D01*
X3867000Y-17910698D01*
X3867000Y-17649302D01*
X3816004Y-17392928D01*
X3715972Y-17151430D01*
X3570748Y-16934087D01*
X3385913Y-16749252D01*
X3168570Y-16604028D01*
X2941567Y-16510000D01*
X3168570Y-16415972D01*
X3385913Y-16270748D01*
X3570748Y-16085913D01*
X3715972Y-15868570D01*
X3816004Y-15627072D01*
X3867000Y-15370698D01*
X3867000Y-15109302D01*
X3816004Y-14852928D01*
X3715972Y-14611430D01*
X3570748Y-14394087D01*
X3385913Y-14209252D01*
X3168570Y-14064028D01*
X2941567Y-13970000D01*
X3168570Y-13875972D01*
X3385913Y-13730748D01*
X3570748Y-13545913D01*
X3715972Y-13328570D01*
X3816004Y-13087072D01*
X3867000Y-12830698D01*
X3867000Y-12700000D01*
X23098032Y-12700000D01*
X23103001Y-12750451D01*
X23103000Y-50749559D01*
X23098032Y-50800000D01*
X23103000Y-50850441D01*
X23103000Y-50850450D01*
X23117860Y-51001326D01*
X23176585Y-51194916D01*
X23271949Y-51373331D01*
X23400288Y-51529712D01*
X23439481Y-51561877D01*
X26543128Y-54665525D01*
X26575288Y-54704712D01*
X26731669Y-54833051D01*
X26910083Y-54928415D01*
X27103673Y-54987140D01*
X27254549Y-55002000D01*
X27254558Y-55002000D01*
X27304999Y-55006968D01*
X27355440Y-55002000D01*
X31851151Y-55002000D01*
X31900877Y-54992109D01*
X31951327Y-54987140D01*
X31999838Y-54972424D01*
X32049565Y-54962533D01*
X32096406Y-54943131D01*
X32144917Y-54928415D01*
X32189628Y-54904516D01*
X32236467Y-54885115D01*
X32278619Y-54856950D01*
X32323331Y-54833051D01*
X32362520Y-54800889D01*
X32404674Y-54772723D01*
X32440525Y-54736872D01*
X32479712Y-54704712D01*
X32511872Y-54665525D01*
X32547723Y-54629674D01*
X32575889Y-54587520D01*
X32608051Y-54548331D01*
X32631950Y-54503619D01*
X32660115Y-54461467D01*
X32679516Y-54414628D01*
X32703415Y-54369917D01*
X32718131Y-54321406D01*
X32737533Y-54274565D01*
X32747424Y-54224838D01*
X32762140Y-54176327D01*
X32767109Y-54125877D01*
X32777000Y-54076151D01*
X32777000Y-54025451D01*
X32781969Y-53975000D01*
X32777000Y-53924549D01*
X32777000Y-53873849D01*
X32767109Y-53824123D01*
X32762140Y-53773673D01*
X32747424Y-53725162D01*
X32737533Y-53675435D01*
X32718131Y-53628594D01*
X32703415Y-53580083D01*
X32679516Y-53535372D01*
X32660115Y-53488533D01*
X32631950Y-53446381D01*
X32608051Y-53401669D01*
X32575889Y-53362480D01*
X32547723Y-53320326D01*
X32511872Y-53284475D01*
X32479712Y-53245288D01*
X32440525Y-53213128D01*
X32404674Y-53177277D01*
X32362520Y-53149111D01*
X32323331Y-53116949D01*
X32278619Y-53093050D01*
X32236467Y-53064885D01*
X32189628Y-53045484D01*
X32144917Y-53021585D01*
X32096406Y-53006869D01*
X32049565Y-52987467D01*
X31999838Y-52977576D01*
X31951327Y-52962860D01*
X31900877Y-52957891D01*
X31851151Y-52948000D01*
X27730397Y-52948000D01*
X25157000Y-50374604D01*
X25157000Y-47979949D01*
X30718032Y-47979949D01*
X30723001Y-48030399D01*
X30723001Y-48030400D01*
X30737861Y-48181276D01*
X30796586Y-48374866D01*
X30891950Y-48553280D01*
X31020289Y-48709661D01*
X31059476Y-48741821D01*
X35713179Y-53395525D01*
X35745339Y-53434712D01*
X35901720Y-53563051D01*
X36080134Y-53658415D01*
X36273724Y-53717140D01*
X36424600Y-53732000D01*
X36424609Y-53732000D01*
X36475050Y-53736968D01*
X36525491Y-53732000D01*
X36780886Y-53732000D01*
X36796430Y-53783243D01*
X36826794Y-53840050D01*
X36867657Y-53889843D01*
X36917450Y-53930706D01*
X36974257Y-53961070D01*
X37035897Y-53979768D01*
X37100000Y-53986082D01*
X39100000Y-53986082D01*
X39164103Y-53979768D01*
X39225743Y-53961070D01*
X39282550Y-53930706D01*
X39332343Y-53889843D01*
X39373206Y-53840050D01*
X39403570Y-53783243D01*
X39422268Y-53721603D01*
X39428582Y-53657500D01*
X39428582Y-51752500D01*
X39422268Y-51688397D01*
X39403570Y-51626757D01*
X39373206Y-51569950D01*
X39332343Y-51520157D01*
X39282550Y-51479294D01*
X39225743Y-51448930D01*
X39164103Y-51430232D01*
X39100000Y-51423918D01*
X38405143Y-51423918D01*
X38639512Y-51352823D01*
X38861791Y-51234012D01*
X38912983Y-51192000D01*
X41906037Y-51192000D01*
X42004028Y-51428570D01*
X42149252Y-51645913D01*
X42334087Y-51830748D01*
X42551430Y-51975972D01*
X42792928Y-52076004D01*
X43049302Y-52127000D01*
X43310698Y-52127000D01*
X43567072Y-52076004D01*
X43808570Y-51975972D01*
X44025913Y-51830748D01*
X44210748Y-51645913D01*
X44355972Y-51428570D01*
X44456004Y-51187072D01*
X44507000Y-50930698D01*
X44507000Y-50669302D01*
X44456004Y-50412928D01*
X44355972Y-50171430D01*
X44210748Y-49954087D01*
X44025913Y-49769252D01*
X43808570Y-49624028D01*
X43567072Y-49523996D01*
X43310698Y-49473000D01*
X43305662Y-49473000D01*
X43274712Y-49435288D01*
X43118331Y-49306949D01*
X42939917Y-49211585D01*
X42746327Y-49152860D01*
X42595451Y-49138000D01*
X42595441Y-49138000D01*
X42545000Y-49133032D01*
X42494559Y-49138000D01*
X38912983Y-49138000D01*
X38861791Y-49095988D01*
X38673002Y-48995078D01*
X38673002Y-48955917D01*
X38899565Y-49014119D01*
X39156118Y-48840707D01*
X39373910Y-48620576D01*
X39520118Y-48422544D01*
X39456315Y-48198000D01*
X38673000Y-48198000D01*
X38673000Y-48218000D01*
X37527000Y-48218000D01*
X37527000Y-48198000D01*
X36743685Y-48198000D01*
X36679882Y-48422544D01*
X36826090Y-48620576D01*
X37043882Y-48840707D01*
X37300435Y-49014119D01*
X37526998Y-48955917D01*
X37526998Y-48995078D01*
X37338209Y-49095988D01*
X37143380Y-49255880D01*
X36983488Y-49450709D01*
X36864677Y-49672988D01*
X36791514Y-49914174D01*
X36766810Y-50165000D01*
X36791514Y-50415826D01*
X36864677Y-50657012D01*
X36983488Y-50879291D01*
X37143380Y-51074120D01*
X37338209Y-51234012D01*
X37560488Y-51352823D01*
X37794857Y-51423918D01*
X37100000Y-51423918D01*
X37035897Y-51430232D01*
X36974257Y-51448930D01*
X36917450Y-51479294D01*
X36867657Y-51520157D01*
X36826794Y-51569950D01*
X36814813Y-51592365D01*
X32777000Y-47554553D01*
X32777000Y-46939549D01*
X32765960Y-46827456D01*
X36679882Y-46827456D01*
X36743685Y-47052000D01*
X37527000Y-47052000D01*
X37527000Y-46294084D01*
X38673000Y-46294084D01*
X38673000Y-47052000D01*
X39456315Y-47052000D01*
X39520118Y-46827456D01*
X39373910Y-46629424D01*
X39156118Y-46409293D01*
X38899565Y-46235881D01*
X38673000Y-46294084D01*
X37527000Y-46294084D01*
X37300435Y-46235881D01*
X37043882Y-46409293D01*
X36826090Y-46629424D01*
X36679882Y-46827456D01*
X32765960Y-46827456D01*
X32762140Y-46788673D01*
X32728254Y-46676966D01*
X32737533Y-46654565D01*
X32777000Y-46456151D01*
X32777000Y-46253849D01*
X32737533Y-46055435D01*
X32660115Y-45868533D01*
X32547723Y-45700326D01*
X32404674Y-45557277D01*
X32236467Y-45444885D01*
X32049565Y-45367467D01*
X31851151Y-45328000D01*
X31648849Y-45328000D01*
X31450435Y-45367467D01*
X31263533Y-45444885D01*
X31095326Y-45557277D01*
X30952277Y-45700326D01*
X30839885Y-45868533D01*
X30762467Y-46055435D01*
X30723000Y-46253849D01*
X30723000Y-46456151D01*
X30762467Y-46654565D01*
X30771746Y-46676967D01*
X30737860Y-46788674D01*
X30723000Y-46939550D01*
X30723001Y-47929499D01*
X30718032Y-47979949D01*
X25157000Y-47979949D01*
X25157000Y-43055735D01*
X26301796Y-43055735D01*
X26309031Y-43377720D01*
X26357516Y-43621475D01*
X26566736Y-43742920D01*
X27129656Y-43180000D01*
X28750344Y-43180000D01*
X29313264Y-43742920D01*
X29522484Y-43621475D01*
X29578204Y-43304265D01*
X29570969Y-42982280D01*
X29522484Y-42738525D01*
X29313264Y-42617080D01*
X28750344Y-43180000D01*
X27129656Y-43180000D01*
X26566736Y-42617080D01*
X26357516Y-42738525D01*
X26301796Y-43055735D01*
X25157000Y-43055735D01*
X25157000Y-13125396D01*
X27092868Y-11189529D01*
X27094087Y-11190748D01*
X27311430Y-11335972D01*
X27538433Y-11430000D01*
X27311430Y-11524028D01*
X27094087Y-11669252D01*
X26909252Y-11854087D01*
X26764028Y-12071430D01*
X26663996Y-12312928D01*
X26613000Y-12569302D01*
X26613000Y-12830698D01*
X26663996Y-13087072D01*
X26764028Y-13328570D01*
X26909252Y-13545913D01*
X27094087Y-13730748D01*
X27311430Y-13875972D01*
X27538433Y-13970000D01*
X27311430Y-14064028D01*
X27094087Y-14209252D01*
X26909252Y-14394087D01*
X26764028Y-14611430D01*
X26663996Y-14852928D01*
X26613000Y-15109302D01*
X26613000Y-15370698D01*
X26663996Y-15627072D01*
X26764028Y-15868570D01*
X26909252Y-16085913D01*
X27094087Y-16270748D01*
X27311430Y-16415972D01*
X27538433Y-16510000D01*
X27311430Y-16604028D01*
X27094087Y-16749252D01*
X26909252Y-16934087D01*
X26764028Y-17151430D01*
X26663996Y-17392928D01*
X26613000Y-17649302D01*
X26613000Y-17910698D01*
X26663996Y-18167072D01*
X26764028Y-18408570D01*
X26909252Y-18625913D01*
X27094087Y-18810748D01*
X27311430Y-18955972D01*
X27538433Y-19050000D01*
X27311430Y-19144028D01*
X27094087Y-19289252D01*
X26909252Y-19474087D01*
X26764028Y-19691430D01*
X26663996Y-19932928D01*
X26613000Y-20189302D01*
X26613000Y-20450698D01*
X26663996Y-20707072D01*
X26764028Y-20948570D01*
X26909252Y-21165913D01*
X27094087Y-21350748D01*
X27311430Y-21495972D01*
X27538433Y-21590000D01*
X27311430Y-21684028D01*
X27094087Y-21829252D01*
X26909252Y-22014087D01*
X26764028Y-22231430D01*
X26663996Y-22472928D01*
X26613000Y-22729302D01*
X26613000Y-22990698D01*
X26663996Y-23247072D01*
X26764028Y-23488570D01*
X26909252Y-23705913D01*
X27094087Y-23890748D01*
X27311430Y-24035972D01*
X27538433Y-24130000D01*
X27311430Y-24224028D01*
X27094087Y-24369252D01*
X26909252Y-24554087D01*
X26764028Y-24771430D01*
X26663996Y-25012928D01*
X26613000Y-25269302D01*
X26613000Y-25530698D01*
X26663996Y-25787072D01*
X26764028Y-26028570D01*
X26909252Y-26245913D01*
X27094087Y-26430748D01*
X27311430Y-26575972D01*
X27538433Y-26670000D01*
X27311430Y-26764028D01*
X27094087Y-26909252D01*
X26909252Y-27094087D01*
X26764028Y-27311430D01*
X26663996Y-27552928D01*
X26613000Y-27809302D01*
X26613000Y-28070698D01*
X26663996Y-28327072D01*
X26764028Y-28568570D01*
X26909252Y-28785913D01*
X27094087Y-28970748D01*
X27311430Y-29115972D01*
X27538433Y-29210000D01*
X27311430Y-29304028D01*
X27094087Y-29449252D01*
X26909252Y-29634087D01*
X26764028Y-29851430D01*
X26663996Y-30092928D01*
X26613000Y-30349302D01*
X26613000Y-30610698D01*
X26663996Y-30867072D01*
X26764028Y-31108570D01*
X26909252Y-31325913D01*
X27094087Y-31510748D01*
X27311430Y-31655972D01*
X27538433Y-31750000D01*
X27311430Y-31844028D01*
X27094087Y-31989252D01*
X26909252Y-32174087D01*
X26764028Y-32391430D01*
X26663996Y-32632928D01*
X26613000Y-32889302D01*
X26613000Y-33150698D01*
X26663996Y-33407072D01*
X26764028Y-33648570D01*
X26909252Y-33865913D01*
X27094087Y-34050748D01*
X27311430Y-34195972D01*
X27538433Y-34290000D01*
X27311430Y-34384028D01*
X27094087Y-34529252D01*
X26909252Y-34714087D01*
X26764028Y-34931430D01*
X26663996Y-35172928D01*
X26613000Y-35429302D01*
X26613000Y-35690698D01*
X26663996Y-35947072D01*
X26764028Y-36188570D01*
X26909252Y-36405913D01*
X27094087Y-36590748D01*
X27311430Y-36735972D01*
X27538433Y-36830000D01*
X27311430Y-36924028D01*
X27094087Y-37069252D01*
X26909252Y-37254087D01*
X26764028Y-37471430D01*
X26663996Y-37712928D01*
X26613000Y-37969302D01*
X26613000Y-38230698D01*
X26663996Y-38487072D01*
X26764028Y-38728570D01*
X26909252Y-38945913D01*
X27094087Y-39130748D01*
X27311430Y-39275972D01*
X27538433Y-39370000D01*
X27311430Y-39464028D01*
X27094087Y-39609252D01*
X26909252Y-39794087D01*
X26764028Y-40011430D01*
X26663996Y-40252928D01*
X26613000Y-40509302D01*
X26613000Y-40770698D01*
X26663996Y-41027072D01*
X26764028Y-41268570D01*
X26909252Y-41485913D01*
X27094087Y-41670748D01*
X27311430Y-41815972D01*
X27439269Y-41868925D01*
X27940000Y-42369656D01*
X28440731Y-41868925D01*
X28568570Y-41815972D01*
X28785913Y-41670748D01*
X28970748Y-41485913D01*
X29115972Y-41268570D01*
X29216004Y-41027072D01*
X29267000Y-40770698D01*
X29267000Y-40509302D01*
X29216004Y-40252928D01*
X29115972Y-40011430D01*
X28970748Y-39794087D01*
X28785913Y-39609252D01*
X28568570Y-39464028D01*
X28341567Y-39370000D01*
X28568570Y-39275972D01*
X28785913Y-39130748D01*
X28970748Y-38945913D01*
X29115972Y-38728570D01*
X29216004Y-38487072D01*
X29267000Y-38230698D01*
X29267000Y-37969302D01*
X29216004Y-37712928D01*
X29115972Y-37471430D01*
X28970748Y-37254087D01*
X28785913Y-37069252D01*
X28568570Y-36924028D01*
X28341567Y-36830000D01*
X28568570Y-36735972D01*
X28785913Y-36590748D01*
X28970748Y-36405913D01*
X29115972Y-36188570D01*
X29216004Y-35947072D01*
X29267000Y-35690698D01*
X29267000Y-35429302D01*
X29216004Y-35172928D01*
X29115972Y-34931430D01*
X28970748Y-34714087D01*
X28785913Y-34529252D01*
X28568570Y-34384028D01*
X28341567Y-34290000D01*
X28568570Y-34195972D01*
X28785913Y-34050748D01*
X28970748Y-33865913D01*
X29115972Y-33648570D01*
X29216004Y-33407072D01*
X29267000Y-33150698D01*
X29267000Y-32889302D01*
X29216004Y-32632928D01*
X29115972Y-32391430D01*
X28970748Y-32174087D01*
X28785913Y-31989252D01*
X28568570Y-31844028D01*
X28341567Y-31750000D01*
X28568570Y-31655972D01*
X28785913Y-31510748D01*
X28970748Y-31325913D01*
X29115972Y-31108570D01*
X29216004Y-30867072D01*
X29267000Y-30610698D01*
X29267000Y-30349302D01*
X29216004Y-30092928D01*
X29115972Y-29851430D01*
X28970748Y-29634087D01*
X28785913Y-29449252D01*
X28568570Y-29304028D01*
X28341567Y-29210000D01*
X28568570Y-29115972D01*
X28785913Y-28970748D01*
X28970748Y-28785913D01*
X29115972Y-28568570D01*
X29216004Y-28327072D01*
X29267000Y-28070698D01*
X29267000Y-27809302D01*
X29216004Y-27552928D01*
X29115972Y-27311430D01*
X28970748Y-27094087D01*
X28785913Y-26909252D01*
X28568570Y-26764028D01*
X28341567Y-26670000D01*
X28568570Y-26575972D01*
X28785913Y-26430748D01*
X28970748Y-26245913D01*
X29115972Y-26028570D01*
X29216004Y-25787072D01*
X29267000Y-25530698D01*
X29267000Y-25269302D01*
X29216004Y-25012928D01*
X29115972Y-24771430D01*
X28970748Y-24554087D01*
X28785913Y-24369252D01*
X28568570Y-24224028D01*
X28341567Y-24130000D01*
X28568570Y-24035972D01*
X28785913Y-23890748D01*
X28970748Y-23705913D01*
X29115972Y-23488570D01*
X29216004Y-23247072D01*
X29267000Y-22990698D01*
X29267000Y-22729302D01*
X29216004Y-22472928D01*
X29115972Y-22231430D01*
X28970748Y-22014087D01*
X28785913Y-21829252D01*
X28568570Y-21684028D01*
X28341567Y-21590000D01*
X28568570Y-21495972D01*
X28785913Y-21350748D01*
X28970748Y-21165913D01*
X29115972Y-20948570D01*
X29216004Y-20707072D01*
X29267000Y-20450698D01*
X29267000Y-20189302D01*
X29216004Y-19932928D01*
X29115972Y-19691430D01*
X28970748Y-19474087D01*
X28785913Y-19289252D01*
X28568570Y-19144028D01*
X28341567Y-19050000D01*
X28568570Y-18955972D01*
X28785913Y-18810748D01*
X28789661Y-18807000D01*
X36779559Y-18807000D01*
X36830000Y-18811968D01*
X36880441Y-18807000D01*
X36880451Y-18807000D01*
X37031327Y-18792140D01*
X37224917Y-18733415D01*
X37403331Y-18638051D01*
X37559712Y-18509712D01*
X37591877Y-18470519D01*
X41065398Y-14997000D01*
X42330339Y-14997000D01*
X42334087Y-15000748D01*
X42551430Y-15145972D01*
X42778433Y-15240000D01*
X42551430Y-15334028D01*
X42334087Y-15479252D01*
X42330339Y-15483000D01*
X41816227Y-15483000D01*
X41765786Y-15478032D01*
X41715345Y-15483000D01*
X41715336Y-15483000D01*
X41564460Y-15497860D01*
X41370870Y-15556585D01*
X41192456Y-15651949D01*
X41036075Y-15780288D01*
X41003915Y-15819475D01*
X34990391Y-21833000D01*
X32926227Y-21833000D01*
X32875786Y-21828032D01*
X32825345Y-21833000D01*
X32825336Y-21833000D01*
X32674460Y-21847860D01*
X32480870Y-21906585D01*
X32302456Y-22001949D01*
X32146075Y-22130288D01*
X32113914Y-22169476D01*
X31059481Y-23223910D01*
X31020288Y-23256075D01*
X30891949Y-23412456D01*
X30796585Y-23590871D01*
X30737860Y-23784461D01*
X30723000Y-23935337D01*
X30723000Y-23935346D01*
X30718032Y-23985787D01*
X30723000Y-24036229D01*
X30723000Y-24550339D01*
X30719252Y-24554087D01*
X30574028Y-24771430D01*
X30473996Y-25012928D01*
X30423000Y-25269302D01*
X30423000Y-25530698D01*
X30473996Y-25787072D01*
X30574028Y-26028570D01*
X30719252Y-26245913D01*
X30723000Y-26249661D01*
X30723001Y-42754602D01*
X29062237Y-44415367D01*
X29004103Y-44397732D01*
X28940000Y-44391418D01*
X28341074Y-44391418D01*
X27940000Y-43990344D01*
X27538926Y-44391418D01*
X26940000Y-44391418D01*
X26875897Y-44397732D01*
X26814257Y-44416430D01*
X26757450Y-44446794D01*
X26707657Y-44487657D01*
X26666794Y-44537450D01*
X26636430Y-44594257D01*
X26617732Y-44655897D01*
X26611418Y-44720000D01*
X26611418Y-46720000D01*
X26617732Y-46784103D01*
X26636430Y-46845743D01*
X26666794Y-46902550D01*
X26707657Y-46952343D01*
X26757450Y-46993206D01*
X26814257Y-47023570D01*
X26875897Y-47042268D01*
X26940000Y-47048582D01*
X28940000Y-47048582D01*
X29004103Y-47042268D01*
X29065743Y-47023570D01*
X29122550Y-46993206D01*
X29172343Y-46952343D01*
X29213206Y-46902550D01*
X29243570Y-46845743D01*
X29262268Y-46784103D01*
X29265976Y-46746456D01*
X29411327Y-46732140D01*
X29604917Y-46673415D01*
X29783331Y-46578051D01*
X29939712Y-46449712D01*
X29971877Y-46410519D01*
X32440525Y-43941872D01*
X32479712Y-43909712D01*
X32608051Y-43753331D01*
X32703415Y-43574917D01*
X32762140Y-43381327D01*
X32777000Y-43230451D01*
X32777000Y-43230442D01*
X32781968Y-43180001D01*
X32777000Y-43129560D01*
X32777000Y-26773264D01*
X33727080Y-26773264D01*
X33848525Y-26982484D01*
X34165735Y-27038204D01*
X34487720Y-27030969D01*
X34731475Y-26982484D01*
X34852920Y-26773264D01*
X34290000Y-26210344D01*
X33727080Y-26773264D01*
X32777000Y-26773264D01*
X32777000Y-26249661D01*
X32780748Y-26245913D01*
X32925972Y-26028570D01*
X32978925Y-25900731D01*
X33479656Y-25400000D01*
X35100344Y-25400000D01*
X35601075Y-25900731D01*
X35654028Y-26028570D01*
X35799252Y-26245913D01*
X35803000Y-26249661D01*
X35803001Y-34239549D01*
X35798032Y-34290000D01*
X35803001Y-34340451D01*
X35817861Y-34491327D01*
X35876586Y-34684917D01*
X35971950Y-34863331D01*
X36100289Y-35019712D01*
X36139476Y-35051872D01*
X41853000Y-40765397D01*
X41853000Y-40770698D01*
X41903996Y-41027072D01*
X42004028Y-41268570D01*
X42149252Y-41485913D01*
X42153000Y-41489661D01*
X42153001Y-44394077D01*
X42115897Y-44397732D01*
X42054257Y-44416430D01*
X41997450Y-44446794D01*
X41947657Y-44487657D01*
X41906794Y-44537450D01*
X41876430Y-44594257D01*
X41857732Y-44655897D01*
X41851418Y-44720000D01*
X41851418Y-46720000D01*
X41857732Y-46784103D01*
X41876430Y-46845743D01*
X41906794Y-46902550D01*
X41947657Y-46952343D01*
X41997450Y-46993206D01*
X42054257Y-47023570D01*
X42115897Y-47042268D01*
X42180000Y-47048582D01*
X44180000Y-47048582D01*
X44244103Y-47042268D01*
X44305743Y-47023570D01*
X44362550Y-46993206D01*
X44412343Y-46952343D01*
X44453206Y-46902550D01*
X44483570Y-46845743D01*
X44502268Y-46784103D01*
X44508582Y-46720000D01*
X44508582Y-44720000D01*
X44502268Y-44655897D01*
X44483570Y-44594257D01*
X44453206Y-44537450D01*
X44412343Y-44487657D01*
X44362550Y-44446794D01*
X44305743Y-44416430D01*
X44244103Y-44397732D01*
X44207000Y-44394077D01*
X44207000Y-41489661D01*
X44210748Y-41485913D01*
X44355972Y-41268570D01*
X44456004Y-41027072D01*
X44507000Y-40770698D01*
X44507000Y-40509302D01*
X44456004Y-40252928D01*
X44355972Y-40011430D01*
X44210748Y-39794087D01*
X44025913Y-39609252D01*
X43808570Y-39464028D01*
X43567072Y-39363996D01*
X43310698Y-39313000D01*
X43305397Y-39313000D01*
X40552397Y-36560000D01*
X41541928Y-36560000D01*
X41554188Y-36684482D01*
X41590498Y-36804180D01*
X41649463Y-36914494D01*
X41728815Y-37011185D01*
X41825506Y-37090537D01*
X41935820Y-37149502D01*
X42055518Y-37185812D01*
X42180000Y-37198072D01*
X42448250Y-37195000D01*
X42607000Y-37036250D01*
X42607000Y-36133000D01*
X43753000Y-36133000D01*
X43753000Y-37036250D01*
X43911750Y-37195000D01*
X44180000Y-37198072D01*
X44304482Y-37185812D01*
X44424180Y-37149502D01*
X44534494Y-37090537D01*
X44631185Y-37011185D01*
X44710537Y-36914494D01*
X44769502Y-36804180D01*
X44805812Y-36684482D01*
X44818072Y-36560000D01*
X44815000Y-36291750D01*
X44656250Y-36133000D01*
X43753000Y-36133000D01*
X42607000Y-36133000D01*
X41703750Y-36133000D01*
X41545000Y-36291750D01*
X41541928Y-36560000D01*
X40552397Y-36560000D01*
X38552397Y-34560000D01*
X41541928Y-34560000D01*
X41545000Y-34828250D01*
X41703750Y-34987000D01*
X42607000Y-34987000D01*
X42607000Y-34083750D01*
X43753000Y-34083750D01*
X43753000Y-34987000D01*
X44656250Y-34987000D01*
X44815000Y-34828250D01*
X44818072Y-34560000D01*
X44805812Y-34435518D01*
X44769502Y-34315820D01*
X44710537Y-34205506D01*
X44631185Y-34108815D01*
X44534494Y-34029463D01*
X44424180Y-33970498D01*
X44304482Y-33934188D01*
X44180000Y-33921928D01*
X43911750Y-33925000D01*
X43753000Y-34083750D01*
X42607000Y-34083750D01*
X42448250Y-33925000D01*
X42180000Y-33921928D01*
X42055518Y-33934188D01*
X41935820Y-33970498D01*
X41825506Y-34029463D01*
X41728815Y-34108815D01*
X41649463Y-34205506D01*
X41590498Y-34315820D01*
X41554188Y-34435518D01*
X41541928Y-34560000D01*
X38552397Y-34560000D01*
X37857000Y-33864604D01*
X37857000Y-31599264D01*
X42617080Y-31599264D01*
X42738525Y-31808484D01*
X43055735Y-31864204D01*
X43377720Y-31856969D01*
X43621475Y-31808484D01*
X43742920Y-31599264D01*
X43180000Y-31036344D01*
X42617080Y-31599264D01*
X37857000Y-31599264D01*
X37857000Y-30101735D01*
X41541796Y-30101735D01*
X41549031Y-30423720D01*
X41597516Y-30667475D01*
X41806736Y-30788920D01*
X42369656Y-30226000D01*
X43990344Y-30226000D01*
X44553264Y-30788920D01*
X44762484Y-30667475D01*
X44818204Y-30350265D01*
X44810969Y-30028280D01*
X44762484Y-29784525D01*
X44553264Y-29663080D01*
X43990344Y-30226000D01*
X42369656Y-30226000D01*
X41806736Y-29663080D01*
X41597516Y-29784525D01*
X41541796Y-30101735D01*
X37857000Y-30101735D01*
X37857000Y-28852736D01*
X42617080Y-28852736D01*
X43180000Y-29415656D01*
X43742920Y-28852736D01*
X43621475Y-28643516D01*
X43304265Y-28587796D01*
X42982280Y-28595031D01*
X42738525Y-28643516D01*
X42617080Y-28852736D01*
X37857000Y-28852736D01*
X37857000Y-26249661D01*
X37860748Y-26245913D01*
X38005972Y-26028570D01*
X38041418Y-25942996D01*
X38041418Y-26400000D01*
X38047732Y-26464103D01*
X38066430Y-26525743D01*
X38096794Y-26582550D01*
X38137657Y-26632343D01*
X38187450Y-26673206D01*
X38244257Y-26703570D01*
X38305897Y-26722268D01*
X38370000Y-26728582D01*
X40370000Y-26728582D01*
X40434103Y-26722268D01*
X40495743Y-26703570D01*
X40552550Y-26673206D01*
X40602343Y-26632343D01*
X40643206Y-26582550D01*
X40673570Y-26525743D01*
X40692268Y-26464103D01*
X40698582Y-26400000D01*
X40698582Y-24400000D01*
X40692268Y-24335897D01*
X40673570Y-24274257D01*
X40643206Y-24217450D01*
X40602343Y-24167657D01*
X40552550Y-24126794D01*
X40495743Y-24096430D01*
X40434103Y-24077732D01*
X40370000Y-24071418D01*
X38370000Y-24071418D01*
X38305897Y-24077732D01*
X38244257Y-24096430D01*
X38187450Y-24126794D01*
X38137657Y-24167657D01*
X38096794Y-24217450D01*
X38066430Y-24274257D01*
X38047732Y-24335897D01*
X38041418Y-24400000D01*
X38041418Y-24857004D01*
X38005972Y-24771430D01*
X37860748Y-24554087D01*
X37675913Y-24369252D01*
X37458570Y-24224028D01*
X37217072Y-24123996D01*
X36960698Y-24073000D01*
X36699302Y-24073000D01*
X36442928Y-24123996D01*
X36201430Y-24224028D01*
X35984087Y-24369252D01*
X35799252Y-24554087D01*
X35654028Y-24771430D01*
X35601075Y-24899269D01*
X35100344Y-25400000D01*
X33479656Y-25400000D01*
X32978925Y-24899269D01*
X32925972Y-24771430D01*
X32780748Y-24554087D01*
X32777000Y-24550339D01*
X32777000Y-24411183D01*
X33301184Y-23887000D01*
X33808192Y-23887000D01*
X33727080Y-24026736D01*
X34290000Y-24589656D01*
X34852920Y-24026736D01*
X34771808Y-23887000D01*
X35509549Y-23887000D01*
X35560000Y-23891969D01*
X35610451Y-23887000D01*
X41484604Y-23887000D01*
X41851418Y-24253815D01*
X41851418Y-26146000D01*
X41857732Y-26210103D01*
X41876430Y-26271743D01*
X41906794Y-26328550D01*
X41947657Y-26378343D01*
X41997450Y-26419206D01*
X42054257Y-26449570D01*
X42115897Y-26468268D01*
X42180000Y-26474582D01*
X44180000Y-26474582D01*
X44244103Y-26468268D01*
X44305743Y-26449570D01*
X44362550Y-26419206D01*
X44412343Y-26378343D01*
X44453206Y-26328550D01*
X44483570Y-26271743D01*
X44502268Y-26210103D01*
X44508582Y-26146000D01*
X44508582Y-24146000D01*
X44502268Y-24081897D01*
X44483570Y-24020257D01*
X44453206Y-23963450D01*
X44412343Y-23913657D01*
X44362550Y-23872794D01*
X44305743Y-23842430D01*
X44244103Y-23823732D01*
X44180000Y-23817418D01*
X44158391Y-23817418D01*
X44133415Y-23735083D01*
X44038051Y-23556669D01*
X43909712Y-23400288D01*
X43870524Y-23368127D01*
X42671877Y-22169481D01*
X42639712Y-22130288D01*
X42483331Y-22001949D01*
X42304917Y-21906585D01*
X42111327Y-21847860D01*
X41960451Y-21833000D01*
X41960441Y-21833000D01*
X41910000Y-21828032D01*
X41859559Y-21833000D01*
X37895183Y-21833000D01*
X39304919Y-20423264D01*
X42617080Y-20423264D01*
X42738525Y-20632484D01*
X43055735Y-20688204D01*
X43377720Y-20680969D01*
X43621475Y-20632484D01*
X43742920Y-20423264D01*
X43180000Y-19860344D01*
X42617080Y-20423264D01*
X39304919Y-20423264D01*
X40802448Y-18925735D01*
X41541796Y-18925735D01*
X41549031Y-19247720D01*
X41597516Y-19491475D01*
X41806736Y-19612920D01*
X42369656Y-19050000D01*
X43990344Y-19050000D01*
X44553264Y-19612920D01*
X44762484Y-19491475D01*
X44818204Y-19174265D01*
X44810969Y-18852280D01*
X44762484Y-18608525D01*
X44553264Y-18487080D01*
X43990344Y-19050000D01*
X42369656Y-19050000D01*
X41806736Y-18487080D01*
X41597516Y-18608525D01*
X41541796Y-18925735D01*
X40802448Y-18925735D01*
X42191184Y-17537000D01*
X42330339Y-17537000D01*
X42334087Y-17540748D01*
X42551430Y-17685972D01*
X42679269Y-17738925D01*
X43180000Y-18239656D01*
X43680731Y-17738925D01*
X43808570Y-17685972D01*
X44025913Y-17540748D01*
X44210748Y-17355913D01*
X44355972Y-17138570D01*
X44456004Y-16897072D01*
X44507000Y-16640698D01*
X44507000Y-16379302D01*
X44456004Y-16122928D01*
X44355972Y-15881430D01*
X44210748Y-15664087D01*
X44025913Y-15479252D01*
X43808570Y-15334028D01*
X43581567Y-15240000D01*
X43808570Y-15145972D01*
X44025913Y-15000748D01*
X44210748Y-14815913D01*
X44355972Y-14598570D01*
X44456004Y-14357072D01*
X44507000Y-14100698D01*
X44507000Y-13839302D01*
X44456004Y-13582928D01*
X44355972Y-13341430D01*
X44210748Y-13124087D01*
X44025913Y-12939252D01*
X43808570Y-12794028D01*
X43722996Y-12758582D01*
X44180000Y-12758582D01*
X44244103Y-12752268D01*
X44305743Y-12733570D01*
X44362550Y-12703206D01*
X44412343Y-12662343D01*
X44453206Y-12612550D01*
X44483570Y-12555743D01*
X44502268Y-12494103D01*
X44508582Y-12430000D01*
X44508582Y-10430000D01*
X44502268Y-10365897D01*
X44483570Y-10304257D01*
X44453206Y-10247450D01*
X44412343Y-10197657D01*
X44362550Y-10156794D01*
X44305743Y-10126430D01*
X44244103Y-10107732D01*
X44180000Y-10101418D01*
X42180000Y-10101418D01*
X42115897Y-10107732D01*
X42054257Y-10126430D01*
X41997450Y-10156794D01*
X41947657Y-10197657D01*
X41906794Y-10247450D01*
X41876430Y-10304257D01*
X41857732Y-10365897D01*
X41854077Y-10403000D01*
X39420443Y-10403000D01*
X39370000Y-10398032D01*
X39319556Y-10403000D01*
X39319549Y-10403000D01*
X39186831Y-10416072D01*
X39168672Y-10417860D01*
X39128653Y-10430000D01*
X38975083Y-10476585D01*
X38796669Y-10571949D01*
X38796667Y-10571950D01*
X38796668Y-10571950D01*
X38679475Y-10668127D01*
X38679470Y-10668132D01*
X38640288Y-10700288D01*
X38608132Y-10739470D01*
X35134604Y-14213000D01*
X28789661Y-14213000D01*
X28785913Y-14209252D01*
X28568570Y-14064028D01*
X28341567Y-13970000D01*
X28568570Y-13875972D01*
X28785913Y-13730748D01*
X28970748Y-13545913D01*
X29115972Y-13328570D01*
X29216004Y-13087072D01*
X29267000Y-12830698D01*
X29267000Y-12569302D01*
X29216004Y-12312928D01*
X29115972Y-12071430D01*
X28970748Y-11854087D01*
X28785913Y-11669252D01*
X28568570Y-11524028D01*
X28341567Y-11430000D01*
X28568570Y-11335972D01*
X28785913Y-11190748D01*
X28970748Y-11005913D01*
X29115972Y-10788570D01*
X29216004Y-10547072D01*
X29267000Y-10290698D01*
X29267000Y-10029302D01*
X29216004Y-9772928D01*
X29115972Y-9531430D01*
X28970748Y-9314087D01*
X28785913Y-9129252D01*
X28568570Y-8984028D01*
X28327072Y-8883996D01*
X28070698Y-8833000D01*
X27809302Y-8833000D01*
X27552928Y-8883996D01*
X27311430Y-8984028D01*
X27094087Y-9129252D01*
X27090339Y-9133000D01*
X26720440Y-9133000D01*
X26669999Y-9128032D01*
X26619558Y-9133000D01*
X26619549Y-9133000D01*
X26468673Y-9147860D01*
X26275083Y-9206585D01*
X26096669Y-9301949D01*
X25940288Y-9430288D01*
X25908128Y-9469475D01*
X23439476Y-11938128D01*
X23400289Y-11970288D01*
X23368129Y-12009475D01*
X23368128Y-12009476D01*
X23271950Y-12126669D01*
X23176586Y-12305083D01*
X23117861Y-12498673D01*
X23098032Y-12700000D01*
X3867000Y-12700000D01*
X3867000Y-12569302D01*
X3816004Y-12312928D01*
X3715972Y-12071430D01*
X3570748Y-11854087D01*
X3385913Y-11669252D01*
X3168570Y-11524028D01*
X2941567Y-11430000D01*
X3168570Y-11335972D01*
X3385913Y-11190748D01*
X3570748Y-11005913D01*
X3715972Y-10788570D01*
X3816004Y-10547072D01*
X3867000Y-10290698D01*
X3867000Y-10029302D01*
X3816004Y-9772928D01*
X3715972Y-9531430D01*
X3570748Y-9314087D01*
X3385913Y-9129252D01*
X3168570Y-8984028D01*
X2927072Y-8883996D01*
X2670698Y-8833000D01*
X2409302Y-8833000D01*
X2152928Y-8883996D01*
X1911430Y-8984028D01*
X1694087Y-9129252D01*
X1509252Y-9314087D01*
X1364028Y-9531430D01*
X1263996Y-9772928D01*
X1213000Y-10029302D01*
X352000Y-10029302D01*
X352000Y-4504267D01*
X418540Y-4838788D01*
X684413Y-5480661D01*
X1070400Y-6058332D01*
X1561668Y-6549600D01*
X2139339Y-6935587D01*
X2781212Y-7201460D01*
X3462621Y-7337000D01*
X4157379Y-7337000D01*
X4838788Y-7201460D01*
X5480661Y-6935587D01*
X6058332Y-6549600D01*
X6549600Y-6058332D01*
X6935587Y-5480661D01*
X7201460Y-4838788D01*
X7337000Y-4157379D01*
X7337000Y-3462621D01*
X7201460Y-2781212D01*
X6935587Y-2139339D01*
X6549600Y-1561668D01*
X6058332Y-1070400D01*
X5480661Y-684413D01*
X4838788Y-418540D01*
X4504267Y-352000D01*
X41215733Y-352000D01*
X40881212Y-418540D01*
G37*
X40881212Y-418540D02*
X40239339Y-684413D01*
X39661668Y-1070400D01*
X39170400Y-1561668D01*
X38784413Y-2139339D01*
X38518540Y-2781212D01*
X38383000Y-3462621D01*
X38383000Y-4157379D01*
X38518540Y-4838788D01*
X38784413Y-5480661D01*
X39170400Y-6058332D01*
X39661668Y-6549600D01*
X40239339Y-6935587D01*
X40881212Y-7201460D01*
X41562621Y-7337000D01*
X42257379Y-7337000D01*
X42938788Y-7201460D01*
X43580661Y-6935587D01*
X44158332Y-6549600D01*
X44649600Y-6058332D01*
X45035587Y-5480661D01*
X45301460Y-4838788D01*
X45368001Y-4504262D01*
X45368000Y-57725733D01*
X45301460Y-57391212D01*
X45035587Y-56749339D01*
X44649600Y-56171668D01*
X44158332Y-55680400D01*
X43580661Y-55294413D01*
X42938788Y-55028540D01*
X42257379Y-54893000D01*
X41562621Y-54893000D01*
X40881212Y-55028540D01*
X40239339Y-55294413D01*
X39661668Y-55680400D01*
X39170400Y-56171668D01*
X38784413Y-56749339D01*
X38518540Y-57391212D01*
X38383000Y-58072621D01*
X38383000Y-58767379D01*
X38518540Y-59448788D01*
X38784413Y-60090661D01*
X39170400Y-60668332D01*
X39661668Y-61159600D01*
X40239339Y-61545587D01*
X40881212Y-61811460D01*
X41215733Y-61878000D01*
X4504267Y-61878000D01*
X4838788Y-61811460D01*
X5480661Y-61545587D01*
X6058332Y-61159600D01*
X6549600Y-60668332D01*
X6935587Y-60090661D01*
X7201460Y-59448788D01*
X7337000Y-58767379D01*
X7337000Y-58072621D01*
X7201460Y-57391212D01*
X6935587Y-56749339D01*
X6549600Y-56171668D01*
X6058332Y-55680400D01*
X5480661Y-55294413D01*
X4838788Y-55028540D01*
X4157379Y-54893000D01*
X3462621Y-54893000D01*
X2781212Y-55028540D01*
X2139339Y-55294413D01*
X1561668Y-55680400D01*
X1070400Y-56171668D01*
X684413Y-56749339D01*
X418540Y-57391212D01*
X352000Y-57725733D01*
X352000Y-10029302D01*
X1213000Y-10029302D01*
X1213000Y-10290698D01*
X1263996Y-10547072D01*
X1364028Y-10788570D01*
X1509252Y-11005913D01*
X1694087Y-11190748D01*
X1911430Y-11335972D01*
X2138433Y-11430000D01*
X1911430Y-11524028D01*
X1694087Y-11669252D01*
X1509252Y-11854087D01*
X1364028Y-12071430D01*
X1263996Y-12312928D01*
X1213000Y-12569302D01*
X1213000Y-12830698D01*
X1263996Y-13087072D01*
X1364028Y-13328570D01*
X1509252Y-13545913D01*
X1694087Y-13730748D01*
X1911430Y-13875972D01*
X2138433Y-13970000D01*
X1911430Y-14064028D01*
X1694087Y-14209252D01*
X1509252Y-14394087D01*
X1364028Y-14611430D01*
X1263996Y-14852928D01*
X1213000Y-15109302D01*
X1213000Y-15370698D01*
X1263996Y-15627072D01*
X1364028Y-15868570D01*
X1509252Y-16085913D01*
X1694087Y-16270748D01*
X1911430Y-16415972D01*
X2138433Y-16510000D01*
X1911430Y-16604028D01*
X1694087Y-16749252D01*
X1509252Y-16934087D01*
X1364028Y-17151430D01*
X1263996Y-17392928D01*
X1213000Y-17649302D01*
X1213000Y-17910698D01*
X1263996Y-18167072D01*
X1364028Y-18408570D01*
X1509252Y-18625913D01*
X1694087Y-18810748D01*
X1911430Y-18955972D01*
X2138433Y-19050000D01*
X1911430Y-19144028D01*
X1694087Y-19289252D01*
X1509252Y-19474087D01*
X1364028Y-19691430D01*
X1263996Y-19932928D01*
X1213000Y-20189302D01*
X1213000Y-20450698D01*
X1263996Y-20707072D01*
X1364028Y-20948570D01*
X1509252Y-21165913D01*
X1694087Y-21350748D01*
X1911430Y-21495972D01*
X2138433Y-21590000D01*
X1911430Y-21684028D01*
X1694087Y-21829252D01*
X1509252Y-22014087D01*
X1364028Y-22231430D01*
X1263996Y-22472928D01*
X1213000Y-22729302D01*
X1213000Y-22990698D01*
X1263996Y-23247072D01*
X1364028Y-23488570D01*
X1509252Y-23705913D01*
X1694087Y-23890748D01*
X1911430Y-24035972D01*
X2138433Y-24130000D01*
X1911430Y-24224028D01*
X1694087Y-24369252D01*
X1509252Y-24554087D01*
X1364028Y-24771430D01*
X1263996Y-25012928D01*
X1213000Y-25269302D01*
X1213000Y-25530698D01*
X1263996Y-25787072D01*
X1364028Y-26028570D01*
X1509252Y-26245913D01*
X1694087Y-26430748D01*
X1911430Y-26575972D01*
X2138433Y-26670000D01*
X1911430Y-26764028D01*
X1694087Y-26909252D01*
X1509252Y-27094087D01*
X1364028Y-27311430D01*
X1263996Y-27552928D01*
X1213000Y-27809302D01*
X1213000Y-28070698D01*
X1263996Y-28327072D01*
X1364028Y-28568570D01*
X1509252Y-28785913D01*
X1694087Y-28970748D01*
X1911430Y-29115972D01*
X2138433Y-29210000D01*
X1911430Y-29304028D01*
X1694087Y-29449252D01*
X1509252Y-29634087D01*
X1364028Y-29851430D01*
X1263996Y-30092928D01*
X1213000Y-30349302D01*
X1213000Y-30610698D01*
X1263996Y-30867072D01*
X1364028Y-31108570D01*
X1509252Y-31325913D01*
X1694087Y-31510748D01*
X1911430Y-31655972D01*
X2138433Y-31750000D01*
X1911430Y-31844028D01*
X1694087Y-31989252D01*
X1509252Y-32174087D01*
X1364028Y-32391430D01*
X1263996Y-32632928D01*
X1213000Y-32889302D01*
X1213000Y-33150698D01*
X1263996Y-33407072D01*
X1364028Y-33648570D01*
X1509252Y-33865913D01*
X1694087Y-34050748D01*
X1911430Y-34195972D01*
X2138433Y-34290000D01*
X1911430Y-34384028D01*
X1694087Y-34529252D01*
X1509252Y-34714087D01*
X1364028Y-34931430D01*
X1263996Y-35172928D01*
X1213000Y-35429302D01*
X1213000Y-35690698D01*
X1263996Y-35947072D01*
X1364028Y-36188570D01*
X1509252Y-36405913D01*
X1694087Y-36590748D01*
X1911430Y-36735972D01*
X2138433Y-36830000D01*
X1911430Y-36924028D01*
X1694087Y-37069252D01*
X1509252Y-37254087D01*
X1364028Y-37471430D01*
X1263996Y-37712928D01*
X1213000Y-37969302D01*
X1213000Y-38230698D01*
X1263996Y-38487072D01*
X1364028Y-38728570D01*
X1509252Y-38945913D01*
X1694087Y-39130748D01*
X1911430Y-39275972D01*
X2138433Y-39370000D01*
X1911430Y-39464028D01*
X1694087Y-39609252D01*
X1509252Y-39794087D01*
X1364028Y-40011430D01*
X1263996Y-40252928D01*
X1213000Y-40509302D01*
X1213000Y-40770698D01*
X1263996Y-41027072D01*
X1364028Y-41268570D01*
X1509252Y-41485913D01*
X1694087Y-41670748D01*
X1911430Y-41815972D01*
X2138433Y-41910000D01*
X1911430Y-42004028D01*
X1694087Y-42149252D01*
X1509252Y-42334087D01*
X1364028Y-42551430D01*
X1263996Y-42792928D01*
X1213000Y-43049302D01*
X1213000Y-43310698D01*
X1263996Y-43567072D01*
X1364028Y-43808570D01*
X1509252Y-44025913D01*
X1694087Y-44210748D01*
X1911430Y-44355972D01*
X2138433Y-44450000D01*
X1911430Y-44544028D01*
X1694087Y-44689252D01*
X1509252Y-44874087D01*
X1364028Y-45091430D01*
X1263996Y-45332928D01*
X1213000Y-45589302D01*
X1213000Y-45850698D01*
X1263996Y-46107072D01*
X1364028Y-46348570D01*
X1509252Y-46565913D01*
X1694087Y-46750748D01*
X1911430Y-46895972D01*
X2152928Y-46996004D01*
X2409302Y-47047000D01*
X2670698Y-47047000D01*
X2927072Y-46996004D01*
X3168570Y-46895972D01*
X3385913Y-46750748D01*
X3570748Y-46565913D01*
X3715972Y-46348570D01*
X3816004Y-46107072D01*
X3867000Y-45850698D01*
X3867000Y-45589302D01*
X3816004Y-45332928D01*
X3715972Y-45091430D01*
X3570748Y-44874087D01*
X3385913Y-44689252D01*
X3168570Y-44544028D01*
X2941567Y-44450000D01*
X3168570Y-44355972D01*
X3385913Y-44210748D01*
X3570748Y-44025913D01*
X3715972Y-43808570D01*
X3816004Y-43567072D01*
X3867000Y-43310698D01*
X3867000Y-43049302D01*
X3816004Y-42792928D01*
X3715972Y-42551430D01*
X3570748Y-42334087D01*
X3385913Y-42149252D01*
X3168570Y-42004028D01*
X2941567Y-41910000D01*
X3168570Y-41815972D01*
X3385913Y-41670748D01*
X3570748Y-41485913D01*
X3715972Y-41268570D01*
X3816004Y-41027072D01*
X3867000Y-40770698D01*
X3867000Y-40509302D01*
X3816004Y-40252928D01*
X3715972Y-40011430D01*
X3570748Y-39794087D01*
X3385913Y-39609252D01*
X3168570Y-39464028D01*
X2941567Y-39370000D01*
X3168570Y-39275972D01*
X3385913Y-39130748D01*
X3570748Y-38945913D01*
X3715972Y-38728570D01*
X3816004Y-38487072D01*
X3867000Y-38230698D01*
X3867000Y-37969302D01*
X3816004Y-37712928D01*
X3715972Y-37471430D01*
X3570748Y-37254087D01*
X3385913Y-37069252D01*
X3168570Y-36924028D01*
X2941567Y-36830000D01*
X3168570Y-36735972D01*
X3385913Y-36590748D01*
X3570748Y-36405913D01*
X3715972Y-36188570D01*
X3816004Y-35947072D01*
X3867000Y-35690698D01*
X3867000Y-35429302D01*
X3816004Y-35172928D01*
X3715972Y-34931430D01*
X3570748Y-34714087D01*
X3385913Y-34529252D01*
X3168570Y-34384028D01*
X2941567Y-34290000D01*
X3168570Y-34195972D01*
X3385913Y-34050748D01*
X3570748Y-33865913D01*
X3715972Y-33648570D01*
X3816004Y-33407072D01*
X3867000Y-33150698D01*
X3867000Y-32889302D01*
X3816004Y-32632928D01*
X3715972Y-32391430D01*
X3570748Y-32174087D01*
X3385913Y-31989252D01*
X3168570Y-31844028D01*
X2941567Y-31750000D01*
X3168570Y-31655972D01*
X3385913Y-31510748D01*
X3570748Y-31325913D01*
X3715972Y-31108570D01*
X3816004Y-30867072D01*
X3867000Y-30610698D01*
X3867000Y-30349302D01*
X3816004Y-30092928D01*
X3715972Y-29851430D01*
X3570748Y-29634087D01*
X3385913Y-29449252D01*
X3168570Y-29304028D01*
X2941567Y-29210000D01*
X3168570Y-29115972D01*
X3385913Y-28970748D01*
X3570748Y-28785913D01*
X3715972Y-28568570D01*
X3816004Y-28327072D01*
X3867000Y-28070698D01*
X3867000Y-27809302D01*
X3816004Y-27552928D01*
X3715972Y-27311430D01*
X3570748Y-27094087D01*
X3385913Y-26909252D01*
X3168570Y-26764028D01*
X2941567Y-26670000D01*
X3168570Y-26575972D01*
X3385913Y-26430748D01*
X3570748Y-26245913D01*
X3715972Y-26028570D01*
X3816004Y-25787072D01*
X3867000Y-25530698D01*
X3867000Y-25269302D01*
X3816004Y-25012928D01*
X3715972Y-24771430D01*
X3570748Y-24554087D01*
X3385913Y-24369252D01*
X3168570Y-24224028D01*
X2941567Y-24130000D01*
X3168570Y-24035972D01*
X3385913Y-23890748D01*
X3570748Y-23705913D01*
X3715972Y-23488570D01*
X3816004Y-23247072D01*
X3867000Y-22990698D01*
X3867000Y-22729302D01*
X3816004Y-22472928D01*
X3715972Y-22231430D01*
X3570748Y-22014087D01*
X3385913Y-21829252D01*
X3168570Y-21684028D01*
X2941567Y-21590000D01*
X3168570Y-21495972D01*
X3385913Y-21350748D01*
X3570748Y-21165913D01*
X3715972Y-20948570D01*
X3816004Y-20707072D01*
X3867000Y-20450698D01*
X3867000Y-20189302D01*
X3816004Y-19932928D01*
X3715972Y-19691430D01*
X3570748Y-19474087D01*
X3385913Y-19289252D01*
X3168570Y-19144028D01*
X2941567Y-19050000D01*
X3168570Y-18955972D01*
X3385913Y-18810748D01*
X3570748Y-18625913D01*
X3715972Y-18408570D01*
X3816004Y-18167072D01*
X3867000Y-17910698D01*
X3867000Y-17649302D01*
X3816004Y-17392928D01*
X3715972Y-17151430D01*
X3570748Y-16934087D01*
X3385913Y-16749252D01*
X3168570Y-16604028D01*
X2941567Y-16510000D01*
X3168570Y-16415972D01*
X3385913Y-16270748D01*
X3570748Y-16085913D01*
X3715972Y-15868570D01*
X3816004Y-15627072D01*
X3867000Y-15370698D01*
X3867000Y-15109302D01*
X3816004Y-14852928D01*
X3715972Y-14611430D01*
X3570748Y-14394087D01*
X3385913Y-14209252D01*
X3168570Y-14064028D01*
X2941567Y-13970000D01*
X3168570Y-13875972D01*
X3385913Y-13730748D01*
X3570748Y-13545913D01*
X3715972Y-13328570D01*
X3816004Y-13087072D01*
X3867000Y-12830698D01*
X3867000Y-12700000D01*
X23098032Y-12700000D01*
X23103001Y-12750451D01*
X23103000Y-50749559D01*
X23098032Y-50800000D01*
X23103000Y-50850441D01*
X23103000Y-50850450D01*
X23117860Y-51001326D01*
X23176585Y-51194916D01*
X23271949Y-51373331D01*
X23400288Y-51529712D01*
X23439481Y-51561877D01*
X26543128Y-54665525D01*
X26575288Y-54704712D01*
X26731669Y-54833051D01*
X26910083Y-54928415D01*
X27103673Y-54987140D01*
X27254549Y-55002000D01*
X27254558Y-55002000D01*
X27304999Y-55006968D01*
X27355440Y-55002000D01*
X31851151Y-55002000D01*
X31900877Y-54992109D01*
X31951327Y-54987140D01*
X31999838Y-54972424D01*
X32049565Y-54962533D01*
X32096406Y-54943131D01*
X32144917Y-54928415D01*
X32189628Y-54904516D01*
X32236467Y-54885115D01*
X32278619Y-54856950D01*
X32323331Y-54833051D01*
X32362520Y-54800889D01*
X32404674Y-54772723D01*
X32440525Y-54736872D01*
X32479712Y-54704712D01*
X32511872Y-54665525D01*
X32547723Y-54629674D01*
X32575889Y-54587520D01*
X32608051Y-54548331D01*
X32631950Y-54503619D01*
X32660115Y-54461467D01*
X32679516Y-54414628D01*
X32703415Y-54369917D01*
X32718131Y-54321406D01*
X32737533Y-54274565D01*
X32747424Y-54224838D01*
X32762140Y-54176327D01*
X32767109Y-54125877D01*
X32777000Y-54076151D01*
X32777000Y-54025451D01*
X32781969Y-53975000D01*
X32777000Y-53924549D01*
X32777000Y-53873849D01*
X32767109Y-53824123D01*
X32762140Y-53773673D01*
X32747424Y-53725162D01*
X32737533Y-53675435D01*
X32718131Y-53628594D01*
X32703415Y-53580083D01*
X32679516Y-53535372D01*
X32660115Y-53488533D01*
X32631950Y-53446381D01*
X32608051Y-53401669D01*
X32575889Y-53362480D01*
X32547723Y-53320326D01*
X32511872Y-53284475D01*
X32479712Y-53245288D01*
X32440525Y-53213128D01*
X32404674Y-53177277D01*
X32362520Y-53149111D01*
X32323331Y-53116949D01*
X32278619Y-53093050D01*
X32236467Y-53064885D01*
X32189628Y-53045484D01*
X32144917Y-53021585D01*
X32096406Y-53006869D01*
X32049565Y-52987467D01*
X31999838Y-52977576D01*
X31951327Y-52962860D01*
X31900877Y-52957891D01*
X31851151Y-52948000D01*
X27730397Y-52948000D01*
X25157000Y-50374604D01*
X25157000Y-47979949D01*
X30718032Y-47979949D01*
X30723001Y-48030399D01*
X30723001Y-48030400D01*
X30737861Y-48181276D01*
X30796586Y-48374866D01*
X30891950Y-48553280D01*
X31020289Y-48709661D01*
X31059476Y-48741821D01*
X35713179Y-53395525D01*
X35745339Y-53434712D01*
X35901720Y-53563051D01*
X36080134Y-53658415D01*
X36273724Y-53717140D01*
X36424600Y-53732000D01*
X36424609Y-53732000D01*
X36475050Y-53736968D01*
X36525491Y-53732000D01*
X36780886Y-53732000D01*
X36796430Y-53783243D01*
X36826794Y-53840050D01*
X36867657Y-53889843D01*
X36917450Y-53930706D01*
X36974257Y-53961070D01*
X37035897Y-53979768D01*
X37100000Y-53986082D01*
X39100000Y-53986082D01*
X39164103Y-53979768D01*
X39225743Y-53961070D01*
X39282550Y-53930706D01*
X39332343Y-53889843D01*
X39373206Y-53840050D01*
X39403570Y-53783243D01*
X39422268Y-53721603D01*
X39428582Y-53657500D01*
X39428582Y-51752500D01*
X39422268Y-51688397D01*
X39403570Y-51626757D01*
X39373206Y-51569950D01*
X39332343Y-51520157D01*
X39282550Y-51479294D01*
X39225743Y-51448930D01*
X39164103Y-51430232D01*
X39100000Y-51423918D01*
X38405143Y-51423918D01*
X38639512Y-51352823D01*
X38861791Y-51234012D01*
X38912983Y-51192000D01*
X41906037Y-51192000D01*
X42004028Y-51428570D01*
X42149252Y-51645913D01*
X42334087Y-51830748D01*
X42551430Y-51975972D01*
X42792928Y-52076004D01*
X43049302Y-52127000D01*
X43310698Y-52127000D01*
X43567072Y-52076004D01*
X43808570Y-51975972D01*
X44025913Y-51830748D01*
X44210748Y-51645913D01*
X44355972Y-51428570D01*
X44456004Y-51187072D01*
X44507000Y-50930698D01*
X44507000Y-50669302D01*
X44456004Y-50412928D01*
X44355972Y-50171430D01*
X44210748Y-49954087D01*
X44025913Y-49769252D01*
X43808570Y-49624028D01*
X43567072Y-49523996D01*
X43310698Y-49473000D01*
X43305662Y-49473000D01*
X43274712Y-49435288D01*
X43118331Y-49306949D01*
X42939917Y-49211585D01*
X42746327Y-49152860D01*
X42595451Y-49138000D01*
X42595441Y-49138000D01*
X42545000Y-49133032D01*
X42494559Y-49138000D01*
X38912983Y-49138000D01*
X38861791Y-49095988D01*
X38673002Y-48995078D01*
X38673002Y-48955917D01*
X38899565Y-49014119D01*
X39156118Y-48840707D01*
X39373910Y-48620576D01*
X39520118Y-48422544D01*
X39456315Y-48198000D01*
X38673000Y-48198000D01*
X38673000Y-48218000D01*
X37527000Y-48218000D01*
X37527000Y-48198000D01*
X36743685Y-48198000D01*
X36679882Y-48422544D01*
X36826090Y-48620576D01*
X37043882Y-48840707D01*
X37300435Y-49014119D01*
X37526998Y-48955917D01*
X37526998Y-48995078D01*
X37338209Y-49095988D01*
X37143380Y-49255880D01*
X36983488Y-49450709D01*
X36864677Y-49672988D01*
X36791514Y-49914174D01*
X36766810Y-50165000D01*
X36791514Y-50415826D01*
X36864677Y-50657012D01*
X36983488Y-50879291D01*
X37143380Y-51074120D01*
X37338209Y-51234012D01*
X37560488Y-51352823D01*
X37794857Y-51423918D01*
X37100000Y-51423918D01*
X37035897Y-51430232D01*
X36974257Y-51448930D01*
X36917450Y-51479294D01*
X36867657Y-51520157D01*
X36826794Y-51569950D01*
X36814813Y-51592365D01*
X32777000Y-47554553D01*
X32777000Y-46939549D01*
X32765960Y-46827456D01*
X36679882Y-46827456D01*
X36743685Y-47052000D01*
X37527000Y-47052000D01*
X37527000Y-46294084D01*
X38673000Y-46294084D01*
X38673000Y-47052000D01*
X39456315Y-47052000D01*
X39520118Y-46827456D01*
X39373910Y-46629424D01*
X39156118Y-46409293D01*
X38899565Y-46235881D01*
X38673000Y-46294084D01*
X37527000Y-46294084D01*
X37300435Y-46235881D01*
X37043882Y-46409293D01*
X36826090Y-46629424D01*
X36679882Y-46827456D01*
X32765960Y-46827456D01*
X32762140Y-46788673D01*
X32728254Y-46676966D01*
X32737533Y-46654565D01*
X32777000Y-46456151D01*
X32777000Y-46253849D01*
X32737533Y-46055435D01*
X32660115Y-45868533D01*
X32547723Y-45700326D01*
X32404674Y-45557277D01*
X32236467Y-45444885D01*
X32049565Y-45367467D01*
X31851151Y-45328000D01*
X31648849Y-45328000D01*
X31450435Y-45367467D01*
X31263533Y-45444885D01*
X31095326Y-45557277D01*
X30952277Y-45700326D01*
X30839885Y-45868533D01*
X30762467Y-46055435D01*
X30723000Y-46253849D01*
X30723000Y-46456151D01*
X30762467Y-46654565D01*
X30771746Y-46676967D01*
X30737860Y-46788674D01*
X30723000Y-46939550D01*
X30723001Y-47929499D01*
X30718032Y-47979949D01*
X25157000Y-47979949D01*
X25157000Y-43055735D01*
X26301796Y-43055735D01*
X26309031Y-43377720D01*
X26357516Y-43621475D01*
X26566736Y-43742920D01*
X27129656Y-43180000D01*
X28750344Y-43180000D01*
X29313264Y-43742920D01*
X29522484Y-43621475D01*
X29578204Y-43304265D01*
X29570969Y-42982280D01*
X29522484Y-42738525D01*
X29313264Y-42617080D01*
X28750344Y-43180000D01*
X27129656Y-43180000D01*
X26566736Y-42617080D01*
X26357516Y-42738525D01*
X26301796Y-43055735D01*
X25157000Y-43055735D01*
X25157000Y-13125396D01*
X27092868Y-11189529D01*
X27094087Y-11190748D01*
X27311430Y-11335972D01*
X27538433Y-11430000D01*
X27311430Y-11524028D01*
X27094087Y-11669252D01*
X26909252Y-11854087D01*
X26764028Y-12071430D01*
X26663996Y-12312928D01*
X26613000Y-12569302D01*
X26613000Y-12830698D01*
X26663996Y-13087072D01*
X26764028Y-13328570D01*
X26909252Y-13545913D01*
X27094087Y-13730748D01*
X27311430Y-13875972D01*
X27538433Y-13970000D01*
X27311430Y-14064028D01*
X27094087Y-14209252D01*
X26909252Y-14394087D01*
X26764028Y-14611430D01*
X26663996Y-14852928D01*
X26613000Y-15109302D01*
X26613000Y-15370698D01*
X26663996Y-15627072D01*
X26764028Y-15868570D01*
X26909252Y-16085913D01*
X27094087Y-16270748D01*
X27311430Y-16415972D01*
X27538433Y-16510000D01*
X27311430Y-16604028D01*
X27094087Y-16749252D01*
X26909252Y-16934087D01*
X26764028Y-17151430D01*
X26663996Y-17392928D01*
X26613000Y-17649302D01*
X26613000Y-17910698D01*
X26663996Y-18167072D01*
X26764028Y-18408570D01*
X26909252Y-18625913D01*
X27094087Y-18810748D01*
X27311430Y-18955972D01*
X27538433Y-19050000D01*
X27311430Y-19144028D01*
X27094087Y-19289252D01*
X26909252Y-19474087D01*
X26764028Y-19691430D01*
X26663996Y-19932928D01*
X26613000Y-20189302D01*
X26613000Y-20450698D01*
X26663996Y-20707072D01*
X26764028Y-20948570D01*
X26909252Y-21165913D01*
X27094087Y-21350748D01*
X27311430Y-21495972D01*
X27538433Y-21590000D01*
X27311430Y-21684028D01*
X27094087Y-21829252D01*
X26909252Y-22014087D01*
X26764028Y-22231430D01*
X26663996Y-22472928D01*
X26613000Y-22729302D01*
X26613000Y-22990698D01*
X26663996Y-23247072D01*
X26764028Y-23488570D01*
X26909252Y-23705913D01*
X27094087Y-23890748D01*
X27311430Y-24035972D01*
X27538433Y-24130000D01*
X27311430Y-24224028D01*
X27094087Y-24369252D01*
X26909252Y-24554087D01*
X26764028Y-24771430D01*
X26663996Y-25012928D01*
X26613000Y-25269302D01*
X26613000Y-25530698D01*
X26663996Y-25787072D01*
X26764028Y-26028570D01*
X26909252Y-26245913D01*
X27094087Y-26430748D01*
X27311430Y-26575972D01*
X27538433Y-26670000D01*
X27311430Y-26764028D01*
X27094087Y-26909252D01*
X26909252Y-27094087D01*
X26764028Y-27311430D01*
X26663996Y-27552928D01*
X26613000Y-27809302D01*
X26613000Y-28070698D01*
X26663996Y-28327072D01*
X26764028Y-28568570D01*
X26909252Y-28785913D01*
X27094087Y-28970748D01*
X27311430Y-29115972D01*
X27538433Y-29210000D01*
X27311430Y-29304028D01*
X27094087Y-29449252D01*
X26909252Y-29634087D01*
X26764028Y-29851430D01*
X26663996Y-30092928D01*
X26613000Y-30349302D01*
X26613000Y-30610698D01*
X26663996Y-30867072D01*
X26764028Y-31108570D01*
X26909252Y-31325913D01*
X27094087Y-31510748D01*
X27311430Y-31655972D01*
X27538433Y-31750000D01*
X27311430Y-31844028D01*
X27094087Y-31989252D01*
X26909252Y-32174087D01*
X26764028Y-32391430D01*
X26663996Y-32632928D01*
X26613000Y-32889302D01*
X26613000Y-33150698D01*
X26663996Y-33407072D01*
X26764028Y-33648570D01*
X26909252Y-33865913D01*
X27094087Y-34050748D01*
X27311430Y-34195972D01*
X27538433Y-34290000D01*
X27311430Y-34384028D01*
X27094087Y-34529252D01*
X26909252Y-34714087D01*
X26764028Y-34931430D01*
X26663996Y-35172928D01*
X26613000Y-35429302D01*
X26613000Y-35690698D01*
X26663996Y-35947072D01*
X26764028Y-36188570D01*
X26909252Y-36405913D01*
X27094087Y-36590748D01*
X27311430Y-36735972D01*
X27538433Y-36830000D01*
X27311430Y-36924028D01*
X27094087Y-37069252D01*
X26909252Y-37254087D01*
X26764028Y-37471430D01*
X26663996Y-37712928D01*
X26613000Y-37969302D01*
X26613000Y-38230698D01*
X26663996Y-38487072D01*
X26764028Y-38728570D01*
X26909252Y-38945913D01*
X27094087Y-39130748D01*
X27311430Y-39275972D01*
X27538433Y-39370000D01*
X27311430Y-39464028D01*
X27094087Y-39609252D01*
X26909252Y-39794087D01*
X26764028Y-40011430D01*
X26663996Y-40252928D01*
X26613000Y-40509302D01*
X26613000Y-40770698D01*
X26663996Y-41027072D01*
X26764028Y-41268570D01*
X26909252Y-41485913D01*
X27094087Y-41670748D01*
X27311430Y-41815972D01*
X27439269Y-41868925D01*
X27940000Y-42369656D01*
X28440731Y-41868925D01*
X28568570Y-41815972D01*
X28785913Y-41670748D01*
X28970748Y-41485913D01*
X29115972Y-41268570D01*
X29216004Y-41027072D01*
X29267000Y-40770698D01*
X29267000Y-40509302D01*
X29216004Y-40252928D01*
X29115972Y-40011430D01*
X28970748Y-39794087D01*
X28785913Y-39609252D01*
X28568570Y-39464028D01*
X28341567Y-39370000D01*
X28568570Y-39275972D01*
X28785913Y-39130748D01*
X28970748Y-38945913D01*
X29115972Y-38728570D01*
X29216004Y-38487072D01*
X29267000Y-38230698D01*
X29267000Y-37969302D01*
X29216004Y-37712928D01*
X29115972Y-37471430D01*
X28970748Y-37254087D01*
X28785913Y-37069252D01*
X28568570Y-36924028D01*
X28341567Y-36830000D01*
X28568570Y-36735972D01*
X28785913Y-36590748D01*
X28970748Y-36405913D01*
X29115972Y-36188570D01*
X29216004Y-35947072D01*
X29267000Y-35690698D01*
X29267000Y-35429302D01*
X29216004Y-35172928D01*
X29115972Y-34931430D01*
X28970748Y-34714087D01*
X28785913Y-34529252D01*
X28568570Y-34384028D01*
X28341567Y-34290000D01*
X28568570Y-34195972D01*
X28785913Y-34050748D01*
X28970748Y-33865913D01*
X29115972Y-33648570D01*
X29216004Y-33407072D01*
X29267000Y-33150698D01*
X29267000Y-32889302D01*
X29216004Y-32632928D01*
X29115972Y-32391430D01*
X28970748Y-32174087D01*
X28785913Y-31989252D01*
X28568570Y-31844028D01*
X28341567Y-31750000D01*
X28568570Y-31655972D01*
X28785913Y-31510748D01*
X28970748Y-31325913D01*
X29115972Y-31108570D01*
X29216004Y-30867072D01*
X29267000Y-30610698D01*
X29267000Y-30349302D01*
X29216004Y-30092928D01*
X29115972Y-29851430D01*
X28970748Y-29634087D01*
X28785913Y-29449252D01*
X28568570Y-29304028D01*
X28341567Y-29210000D01*
X28568570Y-29115972D01*
X28785913Y-28970748D01*
X28970748Y-28785913D01*
X29115972Y-28568570D01*
X29216004Y-28327072D01*
X29267000Y-28070698D01*
X29267000Y-27809302D01*
X29216004Y-27552928D01*
X29115972Y-27311430D01*
X28970748Y-27094087D01*
X28785913Y-26909252D01*
X28568570Y-26764028D01*
X28341567Y-26670000D01*
X28568570Y-26575972D01*
X28785913Y-26430748D01*
X28970748Y-26245913D01*
X29115972Y-26028570D01*
X29216004Y-25787072D01*
X29267000Y-25530698D01*
X29267000Y-25269302D01*
X29216004Y-25012928D01*
X29115972Y-24771430D01*
X28970748Y-24554087D01*
X28785913Y-24369252D01*
X28568570Y-24224028D01*
X28341567Y-24130000D01*
X28568570Y-24035972D01*
X28785913Y-23890748D01*
X28970748Y-23705913D01*
X29115972Y-23488570D01*
X29216004Y-23247072D01*
X29267000Y-22990698D01*
X29267000Y-22729302D01*
X29216004Y-22472928D01*
X29115972Y-22231430D01*
X28970748Y-22014087D01*
X28785913Y-21829252D01*
X28568570Y-21684028D01*
X28341567Y-21590000D01*
X28568570Y-21495972D01*
X28785913Y-21350748D01*
X28970748Y-21165913D01*
X29115972Y-20948570D01*
X29216004Y-20707072D01*
X29267000Y-20450698D01*
X29267000Y-20189302D01*
X29216004Y-19932928D01*
X29115972Y-19691430D01*
X28970748Y-19474087D01*
X28785913Y-19289252D01*
X28568570Y-19144028D01*
X28341567Y-19050000D01*
X28568570Y-18955972D01*
X28785913Y-18810748D01*
X28789661Y-18807000D01*
X36779559Y-18807000D01*
X36830000Y-18811968D01*
X36880441Y-18807000D01*
X36880451Y-18807000D01*
X37031327Y-18792140D01*
X37224917Y-18733415D01*
X37403331Y-18638051D01*
X37559712Y-18509712D01*
X37591877Y-18470519D01*
X41065398Y-14997000D01*
X42330339Y-14997000D01*
X42334087Y-15000748D01*
X42551430Y-15145972D01*
X42778433Y-15240000D01*
X42551430Y-15334028D01*
X42334087Y-15479252D01*
X42330339Y-15483000D01*
X41816227Y-15483000D01*
X41765786Y-15478032D01*
X41715345Y-15483000D01*
X41715336Y-15483000D01*
X41564460Y-15497860D01*
X41370870Y-15556585D01*
X41192456Y-15651949D01*
X41036075Y-15780288D01*
X41003915Y-15819475D01*
X34990391Y-21833000D01*
X32926227Y-21833000D01*
X32875786Y-21828032D01*
X32825345Y-21833000D01*
X32825336Y-21833000D01*
X32674460Y-21847860D01*
X32480870Y-21906585D01*
X32302456Y-22001949D01*
X32146075Y-22130288D01*
X32113914Y-22169476D01*
X31059481Y-23223910D01*
X31020288Y-23256075D01*
X30891949Y-23412456D01*
X30796585Y-23590871D01*
X30737860Y-23784461D01*
X30723000Y-23935337D01*
X30723000Y-23935346D01*
X30718032Y-23985787D01*
X30723000Y-24036229D01*
X30723000Y-24550339D01*
X30719252Y-24554087D01*
X30574028Y-24771430D01*
X30473996Y-25012928D01*
X30423000Y-25269302D01*
X30423000Y-25530698D01*
X30473996Y-25787072D01*
X30574028Y-26028570D01*
X30719252Y-26245913D01*
X30723000Y-26249661D01*
X30723001Y-42754602D01*
X29062237Y-44415367D01*
X29004103Y-44397732D01*
X28940000Y-44391418D01*
X28341074Y-44391418D01*
X27940000Y-43990344D01*
X27538926Y-44391418D01*
X26940000Y-44391418D01*
X26875897Y-44397732D01*
X26814257Y-44416430D01*
X26757450Y-44446794D01*
X26707657Y-44487657D01*
X26666794Y-44537450D01*
X26636430Y-44594257D01*
X26617732Y-44655897D01*
X26611418Y-44720000D01*
X26611418Y-46720000D01*
X26617732Y-46784103D01*
X26636430Y-46845743D01*
X26666794Y-46902550D01*
X26707657Y-46952343D01*
X26757450Y-46993206D01*
X26814257Y-47023570D01*
X26875897Y-47042268D01*
X26940000Y-47048582D01*
X28940000Y-47048582D01*
X29004103Y-47042268D01*
X29065743Y-47023570D01*
X29122550Y-46993206D01*
X29172343Y-46952343D01*
X29213206Y-46902550D01*
X29243570Y-46845743D01*
X29262268Y-46784103D01*
X29265976Y-46746456D01*
X29411327Y-46732140D01*
X29604917Y-46673415D01*
X29783331Y-46578051D01*
X29939712Y-46449712D01*
X29971877Y-46410519D01*
X32440525Y-43941872D01*
X32479712Y-43909712D01*
X32608051Y-43753331D01*
X32703415Y-43574917D01*
X32762140Y-43381327D01*
X32777000Y-43230451D01*
X32777000Y-43230442D01*
X32781968Y-43180001D01*
X32777000Y-43129560D01*
X32777000Y-26773264D01*
X33727080Y-26773264D01*
X33848525Y-26982484D01*
X34165735Y-27038204D01*
X34487720Y-27030969D01*
X34731475Y-26982484D01*
X34852920Y-26773264D01*
X34290000Y-26210344D01*
X33727080Y-26773264D01*
X32777000Y-26773264D01*
X32777000Y-26249661D01*
X32780748Y-26245913D01*
X32925972Y-26028570D01*
X32978925Y-25900731D01*
X33479656Y-25400000D01*
X35100344Y-25400000D01*
X35601075Y-25900731D01*
X35654028Y-26028570D01*
X35799252Y-26245913D01*
X35803000Y-26249661D01*
X35803001Y-34239549D01*
X35798032Y-34290000D01*
X35803001Y-34340451D01*
X35817861Y-34491327D01*
X35876586Y-34684917D01*
X35971950Y-34863331D01*
X36100289Y-35019712D01*
X36139476Y-35051872D01*
X41853000Y-40765397D01*
X41853000Y-40770698D01*
X41903996Y-41027072D01*
X42004028Y-41268570D01*
X42149252Y-41485913D01*
X42153000Y-41489661D01*
X42153001Y-44394077D01*
X42115897Y-44397732D01*
X42054257Y-44416430D01*
X41997450Y-44446794D01*
X41947657Y-44487657D01*
X41906794Y-44537450D01*
X41876430Y-44594257D01*
X41857732Y-44655897D01*
X41851418Y-44720000D01*
X41851418Y-46720000D01*
X41857732Y-46784103D01*
X41876430Y-46845743D01*
X41906794Y-46902550D01*
X41947657Y-46952343D01*
X41997450Y-46993206D01*
X42054257Y-47023570D01*
X42115897Y-47042268D01*
X42180000Y-47048582D01*
X44180000Y-47048582D01*
X44244103Y-47042268D01*
X44305743Y-47023570D01*
X44362550Y-46993206D01*
X44412343Y-46952343D01*
X44453206Y-46902550D01*
X44483570Y-46845743D01*
X44502268Y-46784103D01*
X44508582Y-46720000D01*
X44508582Y-44720000D01*
X44502268Y-44655897D01*
X44483570Y-44594257D01*
X44453206Y-44537450D01*
X44412343Y-44487657D01*
X44362550Y-44446794D01*
X44305743Y-44416430D01*
X44244103Y-44397732D01*
X44207000Y-44394077D01*
X44207000Y-41489661D01*
X44210748Y-41485913D01*
X44355972Y-41268570D01*
X44456004Y-41027072D01*
X44507000Y-40770698D01*
X44507000Y-40509302D01*
X44456004Y-40252928D01*
X44355972Y-40011430D01*
X44210748Y-39794087D01*
X44025913Y-39609252D01*
X43808570Y-39464028D01*
X43567072Y-39363996D01*
X43310698Y-39313000D01*
X43305397Y-39313000D01*
X40552397Y-36560000D01*
X41541928Y-36560000D01*
X41554188Y-36684482D01*
X41590498Y-36804180D01*
X41649463Y-36914494D01*
X41728815Y-37011185D01*
X41825506Y-37090537D01*
X41935820Y-37149502D01*
X42055518Y-37185812D01*
X42180000Y-37198072D01*
X42448250Y-37195000D01*
X42607000Y-37036250D01*
X42607000Y-36133000D01*
X43753000Y-36133000D01*
X43753000Y-37036250D01*
X43911750Y-37195000D01*
X44180000Y-37198072D01*
X44304482Y-37185812D01*
X44424180Y-37149502D01*
X44534494Y-37090537D01*
X44631185Y-37011185D01*
X44710537Y-36914494D01*
X44769502Y-36804180D01*
X44805812Y-36684482D01*
X44818072Y-36560000D01*
X44815000Y-36291750D01*
X44656250Y-36133000D01*
X43753000Y-36133000D01*
X42607000Y-36133000D01*
X41703750Y-36133000D01*
X41545000Y-36291750D01*
X41541928Y-36560000D01*
X40552397Y-36560000D01*
X38552397Y-34560000D01*
X41541928Y-34560000D01*
X41545000Y-34828250D01*
X41703750Y-34987000D01*
X42607000Y-34987000D01*
X42607000Y-34083750D01*
X43753000Y-34083750D01*
X43753000Y-34987000D01*
X44656250Y-34987000D01*
X44815000Y-34828250D01*
X44818072Y-34560000D01*
X44805812Y-34435518D01*
X44769502Y-34315820D01*
X44710537Y-34205506D01*
X44631185Y-34108815D01*
X44534494Y-34029463D01*
X44424180Y-33970498D01*
X44304482Y-33934188D01*
X44180000Y-33921928D01*
X43911750Y-33925000D01*
X43753000Y-34083750D01*
X42607000Y-34083750D01*
X42448250Y-33925000D01*
X42180000Y-33921928D01*
X42055518Y-33934188D01*
X41935820Y-33970498D01*
X41825506Y-34029463D01*
X41728815Y-34108815D01*
X41649463Y-34205506D01*
X41590498Y-34315820D01*
X41554188Y-34435518D01*
X41541928Y-34560000D01*
X38552397Y-34560000D01*
X37857000Y-33864604D01*
X37857000Y-31599264D01*
X42617080Y-31599264D01*
X42738525Y-31808484D01*
X43055735Y-31864204D01*
X43377720Y-31856969D01*
X43621475Y-31808484D01*
X43742920Y-31599264D01*
X43180000Y-31036344D01*
X42617080Y-31599264D01*
X37857000Y-31599264D01*
X37857000Y-30101735D01*
X41541796Y-30101735D01*
X41549031Y-30423720D01*
X41597516Y-30667475D01*
X41806736Y-30788920D01*
X42369656Y-30226000D01*
X43990344Y-30226000D01*
X44553264Y-30788920D01*
X44762484Y-30667475D01*
X44818204Y-30350265D01*
X44810969Y-30028280D01*
X44762484Y-29784525D01*
X44553264Y-29663080D01*
X43990344Y-30226000D01*
X42369656Y-30226000D01*
X41806736Y-29663080D01*
X41597516Y-29784525D01*
X41541796Y-30101735D01*
X37857000Y-30101735D01*
X37857000Y-28852736D01*
X42617080Y-28852736D01*
X43180000Y-29415656D01*
X43742920Y-28852736D01*
X43621475Y-28643516D01*
X43304265Y-28587796D01*
X42982280Y-28595031D01*
X42738525Y-28643516D01*
X42617080Y-28852736D01*
X37857000Y-28852736D01*
X37857000Y-26249661D01*
X37860748Y-26245913D01*
X38005972Y-26028570D01*
X38041418Y-25942996D01*
X38041418Y-26400000D01*
X38047732Y-26464103D01*
X38066430Y-26525743D01*
X38096794Y-26582550D01*
X38137657Y-26632343D01*
X38187450Y-26673206D01*
X38244257Y-26703570D01*
X38305897Y-26722268D01*
X38370000Y-26728582D01*
X40370000Y-26728582D01*
X40434103Y-26722268D01*
X40495743Y-26703570D01*
X40552550Y-26673206D01*
X40602343Y-26632343D01*
X40643206Y-26582550D01*
X40673570Y-26525743D01*
X40692268Y-26464103D01*
X40698582Y-26400000D01*
X40698582Y-24400000D01*
X40692268Y-24335897D01*
X40673570Y-24274257D01*
X40643206Y-24217450D01*
X40602343Y-24167657D01*
X40552550Y-24126794D01*
X40495743Y-24096430D01*
X40434103Y-24077732D01*
X40370000Y-24071418D01*
X38370000Y-24071418D01*
X38305897Y-24077732D01*
X38244257Y-24096430D01*
X38187450Y-24126794D01*
X38137657Y-24167657D01*
X38096794Y-24217450D01*
X38066430Y-24274257D01*
X38047732Y-24335897D01*
X38041418Y-24400000D01*
X38041418Y-24857004D01*
X38005972Y-24771430D01*
X37860748Y-24554087D01*
X37675913Y-24369252D01*
X37458570Y-24224028D01*
X37217072Y-24123996D01*
X36960698Y-24073000D01*
X36699302Y-24073000D01*
X36442928Y-24123996D01*
X36201430Y-24224028D01*
X35984087Y-24369252D01*
X35799252Y-24554087D01*
X35654028Y-24771430D01*
X35601075Y-24899269D01*
X35100344Y-25400000D01*
X33479656Y-25400000D01*
X32978925Y-24899269D01*
X32925972Y-24771430D01*
X32780748Y-24554087D01*
X32777000Y-24550339D01*
X32777000Y-24411183D01*
X33301184Y-23887000D01*
X33808192Y-23887000D01*
X33727080Y-24026736D01*
X34290000Y-24589656D01*
X34852920Y-24026736D01*
X34771808Y-23887000D01*
X35509549Y-23887000D01*
X35560000Y-23891969D01*
X35610451Y-23887000D01*
X41484604Y-23887000D01*
X41851418Y-24253815D01*
X41851418Y-26146000D01*
X41857732Y-26210103D01*
X41876430Y-26271743D01*
X41906794Y-26328550D01*
X41947657Y-26378343D01*
X41997450Y-26419206D01*
X42054257Y-26449570D01*
X42115897Y-26468268D01*
X42180000Y-26474582D01*
X44180000Y-26474582D01*
X44244103Y-26468268D01*
X44305743Y-26449570D01*
X44362550Y-26419206D01*
X44412343Y-26378343D01*
X44453206Y-26328550D01*
X44483570Y-26271743D01*
X44502268Y-26210103D01*
X44508582Y-26146000D01*
X44508582Y-24146000D01*
X44502268Y-24081897D01*
X44483570Y-24020257D01*
X44453206Y-23963450D01*
X44412343Y-23913657D01*
X44362550Y-23872794D01*
X44305743Y-23842430D01*
X44244103Y-23823732D01*
X44180000Y-23817418D01*
X44158391Y-23817418D01*
X44133415Y-23735083D01*
X44038051Y-23556669D01*
X43909712Y-23400288D01*
X43870524Y-23368127D01*
X42671877Y-22169481D01*
X42639712Y-22130288D01*
X42483331Y-22001949D01*
X42304917Y-21906585D01*
X42111327Y-21847860D01*
X41960451Y-21833000D01*
X41960441Y-21833000D01*
X41910000Y-21828032D01*
X41859559Y-21833000D01*
X37895183Y-21833000D01*
X39304919Y-20423264D01*
X42617080Y-20423264D01*
X42738525Y-20632484D01*
X43055735Y-20688204D01*
X43377720Y-20680969D01*
X43621475Y-20632484D01*
X43742920Y-20423264D01*
X43180000Y-19860344D01*
X42617080Y-20423264D01*
X39304919Y-20423264D01*
X40802448Y-18925735D01*
X41541796Y-18925735D01*
X41549031Y-19247720D01*
X41597516Y-19491475D01*
X41806736Y-19612920D01*
X42369656Y-19050000D01*
X43990344Y-19050000D01*
X44553264Y-19612920D01*
X44762484Y-19491475D01*
X44818204Y-19174265D01*
X44810969Y-18852280D01*
X44762484Y-18608525D01*
X44553264Y-18487080D01*
X43990344Y-19050000D01*
X42369656Y-19050000D01*
X41806736Y-18487080D01*
X41597516Y-18608525D01*
X41541796Y-18925735D01*
X40802448Y-18925735D01*
X42191184Y-17537000D01*
X42330339Y-17537000D01*
X42334087Y-17540748D01*
X42551430Y-17685972D01*
X42679269Y-17738925D01*
X43180000Y-18239656D01*
X43680731Y-17738925D01*
X43808570Y-17685972D01*
X44025913Y-17540748D01*
X44210748Y-17355913D01*
X44355972Y-17138570D01*
X44456004Y-16897072D01*
X44507000Y-16640698D01*
X44507000Y-16379302D01*
X44456004Y-16122928D01*
X44355972Y-15881430D01*
X44210748Y-15664087D01*
X44025913Y-15479252D01*
X43808570Y-15334028D01*
X43581567Y-15240000D01*
X43808570Y-15145972D01*
X44025913Y-15000748D01*
X44210748Y-14815913D01*
X44355972Y-14598570D01*
X44456004Y-14357072D01*
X44507000Y-14100698D01*
X44507000Y-13839302D01*
X44456004Y-13582928D01*
X44355972Y-13341430D01*
X44210748Y-13124087D01*
X44025913Y-12939252D01*
X43808570Y-12794028D01*
X43722996Y-12758582D01*
X44180000Y-12758582D01*
X44244103Y-12752268D01*
X44305743Y-12733570D01*
X44362550Y-12703206D01*
X44412343Y-12662343D01*
X44453206Y-12612550D01*
X44483570Y-12555743D01*
X44502268Y-12494103D01*
X44508582Y-12430000D01*
X44508582Y-10430000D01*
X44502268Y-10365897D01*
X44483570Y-10304257D01*
X44453206Y-10247450D01*
X44412343Y-10197657D01*
X44362550Y-10156794D01*
X44305743Y-10126430D01*
X44244103Y-10107732D01*
X44180000Y-10101418D01*
X42180000Y-10101418D01*
X42115897Y-10107732D01*
X42054257Y-10126430D01*
X41997450Y-10156794D01*
X41947657Y-10197657D01*
X41906794Y-10247450D01*
X41876430Y-10304257D01*
X41857732Y-10365897D01*
X41854077Y-10403000D01*
X39420443Y-10403000D01*
X39370000Y-10398032D01*
X39319556Y-10403000D01*
X39319549Y-10403000D01*
X39186831Y-10416072D01*
X39168672Y-10417860D01*
X39128653Y-10430000D01*
X38975083Y-10476585D01*
X38796669Y-10571949D01*
X38796667Y-10571950D01*
X38796668Y-10571950D01*
X38679475Y-10668127D01*
X38679470Y-10668132D01*
X38640288Y-10700288D01*
X38608132Y-10739470D01*
X35134604Y-14213000D01*
X28789661Y-14213000D01*
X28785913Y-14209252D01*
X28568570Y-14064028D01*
X28341567Y-13970000D01*
X28568570Y-13875972D01*
X28785913Y-13730748D01*
X28970748Y-13545913D01*
X29115972Y-13328570D01*
X29216004Y-13087072D01*
X29267000Y-12830698D01*
X29267000Y-12569302D01*
X29216004Y-12312928D01*
X29115972Y-12071430D01*
X28970748Y-11854087D01*
X28785913Y-11669252D01*
X28568570Y-11524028D01*
X28341567Y-11430000D01*
X28568570Y-11335972D01*
X28785913Y-11190748D01*
X28970748Y-11005913D01*
X29115972Y-10788570D01*
X29216004Y-10547072D01*
X29267000Y-10290698D01*
X29267000Y-10029302D01*
X29216004Y-9772928D01*
X29115972Y-9531430D01*
X28970748Y-9314087D01*
X28785913Y-9129252D01*
X28568570Y-8984028D01*
X28327072Y-8883996D01*
X28070698Y-8833000D01*
X27809302Y-8833000D01*
X27552928Y-8883996D01*
X27311430Y-8984028D01*
X27094087Y-9129252D01*
X27090339Y-9133000D01*
X26720440Y-9133000D01*
X26669999Y-9128032D01*
X26619558Y-9133000D01*
X26619549Y-9133000D01*
X26468673Y-9147860D01*
X26275083Y-9206585D01*
X26096669Y-9301949D01*
X25940288Y-9430288D01*
X25908128Y-9469475D01*
X23439476Y-11938128D01*
X23400289Y-11970288D01*
X23368129Y-12009475D01*
X23368128Y-12009476D01*
X23271950Y-12126669D01*
X23176586Y-12305083D01*
X23117861Y-12498673D01*
X23098032Y-12700000D01*
X3867000Y-12700000D01*
X3867000Y-12569302D01*
X3816004Y-12312928D01*
X3715972Y-12071430D01*
X3570748Y-11854087D01*
X3385913Y-11669252D01*
X3168570Y-11524028D01*
X2941567Y-11430000D01*
X3168570Y-11335972D01*
X3385913Y-11190748D01*
X3570748Y-11005913D01*
X3715972Y-10788570D01*
X3816004Y-10547072D01*
X3867000Y-10290698D01*
X3867000Y-10029302D01*
X3816004Y-9772928D01*
X3715972Y-9531430D01*
X3570748Y-9314087D01*
X3385913Y-9129252D01*
X3168570Y-8984028D01*
X2927072Y-8883996D01*
X2670698Y-8833000D01*
X2409302Y-8833000D01*
X2152928Y-8883996D01*
X1911430Y-8984028D01*
X1694087Y-9129252D01*
X1509252Y-9314087D01*
X1364028Y-9531430D01*
X1263996Y-9772928D01*
X1213000Y-10029302D01*
X352000Y-10029302D01*
X352000Y-4504267D01*
X418540Y-4838788D01*
X684413Y-5480661D01*
X1070400Y-6058332D01*
X1561668Y-6549600D01*
X2139339Y-6935587D01*
X2781212Y-7201460D01*
X3462621Y-7337000D01*
X4157379Y-7337000D01*
X4838788Y-7201460D01*
X5480661Y-6935587D01*
X6058332Y-6549600D01*
X6549600Y-6058332D01*
X6935587Y-5480661D01*
X7201460Y-4838788D01*
X7337000Y-4157379D01*
X7337000Y-3462621D01*
X7201460Y-2781212D01*
X6935587Y-2139339D01*
X6549600Y-1561668D01*
X6058332Y-1070400D01*
X5480661Y-684413D01*
X4838788Y-418540D01*
X4504267Y-352000D01*
X41215733Y-352000D01*
X40881212Y-418540D01*
%TD*%
M02*
